<svg width="38" height="36" viewBox="0 0 38 36" fill="none" xmlns="http://www.w3.org/2000/svg">
<path d="M37.6085 14.3178C37.7709 14.1594 37.8303 13.9257 37.759 13.7078C37.6877 13.494 37.5015 13.3355 37.2797 13.3039L25.477 11.5889C25.1443 11.5414 24.8552 11.3314 24.7086 11.0304L19.4291 0.332695C19.33 0.130702 19.1241 0 18.8944 0C18.6646 0 18.4627 0.126741 18.3597 0.332695L13.0762 11.0423C12.9296 11.3354 12.6524 11.5374 12.3276 11.5849L0.508993 13.3039C0.287196 13.3355 0.101045 13.494 0.0297532 13.7078C-0.0415387 13.9217 0.0178712 14.1594 0.180258 14.3178L8.76696 22.6866C8.98084 22.8966 9.0759 23.1936 9.02837 23.4867L7.00051 35.3053C6.9609 35.5271 7.052 35.7529 7.23815 35.8875C7.42034 36.0182 7.66194 36.038 7.86393 35.9311L18.431 30.3743C18.7241 30.2198 19.0726 30.2198 19.3657 30.3743L29.9327 35.9271C30.0199 35.9747 30.1149 35.9945 30.21 35.9945C30.3327 35.9945 30.4555 35.9549 30.5585 35.8796C30.7407 35.7449 30.8318 35.5231 30.7961 35.2974L28.7762 23.5263C28.7208 23.2055 28.8277 22.8768 29.0614 22.647L37.6085 14.3178Z" fill="#E0CEC5"/>
</svg>
