<svg width="39" height="32" viewBox="0 0 39 32" fill="none" xmlns="http://www.w3.org/2000/svg">
<path fill-rule="evenodd" clip-rule="evenodd" d="M9.52263 14.5125L39 14.5125L39 17.4376L9.52558 17.4376C10.99 18.4274 12.2729 19.6022 13.3806 20.8551C16.4295 24.3036 18.2275 28.4184 18.9638 31.1996L16.136 31.9481C15.4958 29.5293 13.887 25.844 11.1892 22.7925C8.52957 19.7844 4.88804 17.4667 0.0944096 17.4366C0.0629184 17.4368 0.0313883 17.4369 -0.000184748 17.4369L-0.000184478 14.5118L-0.000176685 14.5112C0.0313963 14.5112 0.0629226 14.5113 0.0944099 14.5115C4.88804 14.4814 8.52957 12.1637 11.1892 9.15556C13.887 6.10409 15.4958 2.4188 16.136 -2.11749e-06L18.9638 0.748508C18.2275 3.52973 16.4295 7.64447 13.3806 11.093C12.2721 12.3468 10.9883 13.5223 9.52263 14.5125Z" fill="#021A13"/>
</svg>
