<svg width="92" height="84" viewBox="0 0 92 84" fill="none" xmlns="http://www.w3.org/2000/svg">
<path d="M21.1948 0.00471076C20.9471 0.0519761 20.724 0.185209 20.565 0.380931C20.4059 0.576653 20.3212 0.82227 20.3256 1.07441V19.7943L0.434625 34.4359C0.298718 34.5361 0.188487 34.6672 0.112951 34.8183C0.0374143 34.9693 -0.00128052 35.1362 3.23248e-05 35.305V82.372C4.46647e-05 82.6557 0.112754 82.9278 0.31337 83.1284C0.513985 83.329 0.786077 83.4418 1.0698 83.4418H90.9302C91.2139 83.4418 91.486 83.329 91.6866 83.1284C91.8872 82.9278 92 82.6557 92 82.372V35.305C92.0013 35.1362 91.9626 34.9693 91.887 34.8183C91.8115 34.6672 91.7013 34.5361 91.5654 34.4359L71.6744 19.7943V1.07441C71.6744 0.790716 71.5617 0.518658 71.361 0.318054C71.1604 0.117449 70.8883 0.00473912 70.6046 0.00471076H21.3954C21.3287 -0.00157025 21.2615 -0.00157025 21.1948 0.00471076ZM22.4651 2.14411H69.5349V20.2289V28.8868C69.5321 28.9313 69.5321 28.976 69.5349 29.0205V44.9324C69.5347 44.9434 69.5347 44.9545 69.5349 44.9655L67.4288 46.102L46 57.6017L24.5712 46.1024L22.4651 44.9659C22.4653 44.9548 22.4653 44.9437 22.4651 44.9327V29.0877C22.4714 29.021 22.4714 28.9538 22.4651 28.8871V20.3294C22.4714 20.2627 22.4714 20.1956 22.4651 20.1289V2.14411ZM20.3256 22.4351V28.8868C20.3228 28.9313 20.3228 28.976 20.3256 29.0205V43.8292L3.5102 34.8036L20.3256 22.4351ZM71.6744 22.4351L88.4898 34.8036L71.6744 43.8292V29.0874C71.6807 29.0207 71.6807 28.9535 71.6744 28.8868V22.4351ZM2.13957 36.5085L23.5683 48.0078L33.6977 53.4566L2.5073 80.4667C2.30735 80.6373 2.17658 80.875 2.13957 81.1353V36.5085ZM89.8604 36.5085V81.1687C89.8314 80.8965 89.6999 80.6455 89.4927 80.4667L58.3023 53.4566L68.4317 48.0078L89.8604 36.5085ZM35.7369 54.5264L45.4985 59.7745C45.653 59.8565 45.8252 59.8993 46 59.8993C46.1748 59.8993 46.347 59.8565 46.5014 59.7745L56.2631 54.5264L87.1526 81.3024H4.84741L35.7369 54.5264Z" fill="#021A13"/>
</svg>
