<svg width="57" height="36" viewBox="0 0 57 36" fill="none" xmlns="http://www.w3.org/2000/svg">
<path d="M0.0136991 1.11629C-0.0133216 1.95506 -0.533471 21.7635 8.48357 31.071C11.5099 34.1947 15.2714 35.7782 19.6634 35.7782H27.9385C32.3316 35.7782 36.0931 34.1941 39.1194 31.0704C40.6761 29.4636 41.9428 27.5399 42.9825 25.4587C45.6438 25.4415 48.4361 24.5699 50.9297 22.9603C54.0957 20.9146 56.3136 17.9029 56.863 14.9036C57.2357 12.8658 56.8394 10.9839 55.7169 9.46175C54.0472 7.1975 50.9617 6.10717 47.4574 6.47294C47.6516 3.45415 47.5965 1.3758 47.5882 1.11629C47.569 0.494254 47.059 0 46.4364 0H1.16546C0.542855 1.15288e-07 0.0328388 0.494254 0.0136991 1.11629ZM53.8615 10.8297C54.5967 11.8272 54.85 13.0921 54.5944 14.4882C54.1587 16.8733 52.3202 19.3164 49.6789 21.0238C47.9193 22.1595 45.9474 22.8774 44.0457 23.0879C45.9643 18.3049 46.858 13.023 47.2659 8.82944C50.1346 8.41646 52.6189 9.14553 53.8615 10.8297ZM45.2914 2.30577C45.2633 6.58405 44.6485 22.0489 37.4633 29.4661C34.8873 32.1248 31.6831 33.4725 27.9385 33.4725H19.6634C15.9199 33.4725 12.7168 32.1254 10.142 29.4695C2.96121 22.0613 2.34086 6.58574 2.31159 2.30577H45.2914Z" fill="#1D3738"/>
</svg>
