<svg width="6" height="15" viewBox="0 0 6 15" fill="none" xmlns="http://www.w3.org/2000/svg">
<path d="M0 7.49995C0 9.6015 1.17687 10.6724 2.12228 11.5326C3.01126 12.3404 3.47418 12.8091 3.47418 13.8207C3.47418 14.4719 4.00159 14.9999 4.65335 14.9999C5.30512 14.9999 5.83253 14.4719 5.83253 13.8207C5.83253 11.7192 4.65566 10.6482 3.71025 9.78805C2.82126 8.98025 2.35834 8.51157 2.35834 7.49995C2.35834 6.48833 2.82126 6.01965 3.71025 5.21185C4.65566 4.35165 5.83253 3.28072 5.83253 1.17917C5.83253 0.527979 5.30512 0 4.65335 0C4.00159 0 3.47418 0.527979 3.47418 1.17917C3.47418 2.1908 3.01127 2.65947 2.12228 3.46727C1.17687 4.32747 0 5.3984 0 7.49995Z" fill="#1D3738"/>
</svg>
