<svg width="6" height="15" viewBox="0 0 6 15" fill="none" xmlns="http://www.w3.org/2000/svg">
<path d="M2.12228 11.5326C3.01011 12.3404 3.47303 12.8091 3.47303 13.8207C3.47303 14.4719 4.00043 14.9999 4.6522 14.9999C5.30397 14.9999 5.83138 14.4719 5.83138 13.8207C5.83138 11.7192 4.65451 10.6488 3.7091 9.78805C2.82126 8.98025 2.35834 8.51157 2.35834 7.49995C2.35834 6.48833 2.82126 6.01965 3.7091 5.21185C4.65451 4.35108 5.83138 3.28072 5.83138 1.17917C5.83138 0.527979 5.30397 0 4.6522 0C4.00043 0 3.47303 0.527979 3.47303 1.17917C3.47303 2.1908 3.01011 2.65947 2.12228 3.46727C1.17687 4.32805 0 5.3984 0 7.49995C0 9.6015 1.17687 10.6719 2.12228 11.5326Z" fill="#1D3738"/>
</svg>
