<svg width="46" height="47" viewBox="0 0 46 47" fill="none" xmlns="http://www.w3.org/2000/svg">
<path d="M45.425 0.944824H0.575C0.257178 0.944824 0 1.20228 0 1.51982C0 1.83737 0.257178 2.09482 0.575 2.09482H10.4937V9.02385C5.2925 12.8545 1.91199 19.0057 1.91199 25.9307C1.91199 37.518 11.372 46.9448 23 46.9448C34.628 46.9448 44.088 37.518 44.088 25.9307C44.088 19.0057 40.7075 12.8545 35.5062 9.02385V2.09482H45.425C45.7428 2.09482 46 1.83737 46 1.51982C46 1.20228 45.7428 0.944824 45.425 0.944824ZM42.938 25.9307C42.938 36.8837 33.9941 45.7948 23 45.7948C12.0059 45.7948 3.06199 36.8837 3.06199 25.9307C3.06199 14.9776 12.0059 6.06676 23 6.06676C33.9941 6.06676 42.938 14.9776 42.938 25.9307ZM34.3563 8.23803C31.0755 6.13965 27.1796 4.91676 23 4.91676C18.8204 4.91676 14.9245 6.13965 11.6438 8.23803V2.09482H34.3563V8.23803Z" fill="#1D3738"/>
<path d="M9.84179 21.2843C9.82832 21.7026 9.56889 31.5821 14.0661 36.2242C15.5755 37.7821 17.4516 38.5719 19.6421 38.5719H23.7693C25.9603 38.5719 27.8364 37.7818 29.3457 36.2239C30.1222 35.4225 30.7539 34.463 31.2725 33.4251C32.5998 33.4165 33.9924 32.9818 35.2361 32.179C36.8151 31.1587 37.9213 29.6566 38.1954 28.1607C38.3812 27.1443 38.1836 26.2058 37.6237 25.4466C36.791 24.3173 35.2521 23.7735 33.5043 23.9559C33.6011 22.4503 33.5737 21.4137 33.5695 21.2843C33.56 20.974 33.3056 20.7275 32.9951 20.7275H10.4162C10.1057 20.7275 9.85134 20.974 9.84179 21.2843ZM36.6983 26.1288C37.065 26.6263 37.1914 27.2572 37.0639 27.9535C36.8466 29.1431 35.9296 30.3616 34.6123 31.2131C33.7347 31.7796 32.7512 32.1376 31.8027 32.2426C32.7596 29.8571 33.2054 27.2228 33.4088 25.1312C34.8396 24.9252 36.0786 25.2889 36.6983 26.1288ZM32.424 21.8775C32.41 24.0113 32.1034 31.7244 28.5197 35.4237C27.235 36.7498 25.6369 37.4219 23.7693 37.4219H19.6421C17.775 37.4219 16.1775 36.75 14.8933 35.4254C11.3119 31.7306 11.0025 24.0122 10.9879 21.8775H32.424Z" fill="#1D3738"/>
<path d="M19.0779 17.611C19.5108 18.0049 19.7365 18.2334 19.7365 18.7267C19.7365 19.0443 19.9937 19.3017 20.3115 19.3017C20.6293 19.3017 20.8865 19.0443 20.8865 18.7267C20.8865 17.7019 20.3126 17.18 19.8516 16.7603C19.4187 16.3663 19.193 16.1378 19.193 15.6445C19.193 15.1512 19.4187 14.9227 19.8516 14.5288C20.3126 14.109 20.8865 13.5871 20.8865 12.5623C20.8865 12.2448 20.6293 11.9873 20.3115 11.9873C19.9937 11.9873 19.7365 12.2448 19.7365 12.5623C19.7365 13.0556 19.5108 13.2841 19.0779 13.6781C18.6168 14.0978 18.043 14.6197 18.043 15.6445C18.043 16.6693 18.6168 17.1912 19.0779 17.611Z" fill="#1D3738"/>
<path d="M22.2959 14.48C22.2959 15.5047 22.8698 16.027 23.3308 16.4464C23.7643 16.8403 23.99 17.0689 23.99 17.5622C23.99 17.8797 24.2472 18.1372 24.565 18.1372C24.8828 18.1372 25.14 17.8797 25.14 17.5622C25.14 16.5374 24.5661 16.0152 24.1051 15.5957C23.6716 15.2018 23.4459 14.9733 23.4459 14.48C23.4459 13.9867 23.6716 13.7581 24.1051 13.3642C24.5661 12.9448 25.14 12.4225 25.14 11.3978C25.14 11.0802 24.8828 10.8228 24.565 10.8228C24.2472 10.8228 23.99 11.0802 23.99 11.3978C23.99 11.8911 23.7643 12.1196 23.3308 12.5135C22.8698 12.933 22.2959 13.4552 22.2959 14.48Z" fill="#1D3738"/>
</svg>
