<svg width="92" height="92" viewBox="0 0 92 92" fill="none" xmlns="http://www.w3.org/2000/svg">
<path d="M90.85 0H1.15C0.514355 0 0 0.514917 0 1.15C0 1.78508 0.514355 2.3 1.15 2.3H20.9875V16.158C10.585 23.8193 3.82397 36.1218 3.82397 49.9717C3.82397 73.1463 22.7439 92 46 92C69.2561 92 88.176 73.1463 88.176 49.9717C88.176 36.1218 81.415 23.8193 71.0125 16.158V2.3H90.85C91.4856 2.3 92 1.78508 92 1.15C92 0.514917 91.4856 0 90.85 0ZM85.876 49.9717C85.876 71.8778 67.9881 89.7 46 89.7C24.0119 89.7 6.12397 71.8778 6.12397 49.9717C6.12397 28.0655 24.0119 10.2439 46 10.2439C67.9881 10.2439 85.876 28.0655 85.876 49.9717ZM68.7125 14.5864C62.151 10.3897 54.3591 7.94387 46 7.94387C37.6409 7.94387 29.849 10.3897 23.2875 14.5864V2.3H68.7125V14.5864Z" fill="#1D3738"/>
</svg>
