<svg width="42" height="39" viewBox="0 0 42 39" fill="none" xmlns="http://www.w3.org/2000/svg">
<path d="M9.67588 0.00215056C9.56279 0.0237282 9.46095 0.0845519 9.38835 0.173903C9.31575 0.263255 9.27705 0.375384 9.27908 0.490493V9.03652L0.198416 15.7207C0.136371 15.7665 0.0860484 15.8263 0.0515644 15.8953C0.0170804 15.9643 -0.000584587 16.0404 1.4757e-05 16.1175V37.6046C2.03904e-05 37.7341 0.0514746 37.8583 0.14306 37.9499C0.234646 38.0415 0.358861 38.093 0.488386 38.093H41.5116C41.6411 38.093 41.7654 38.0415 41.8569 37.9499C41.9485 37.8583 42 37.7341 42 37.6046V16.1175C42.0006 16.0404 41.9829 15.9643 41.9484 15.8953C41.914 15.8263 41.8636 15.7665 41.8016 15.7207L32.7209 9.03652V0.490493C32.7209 0.360979 32.6695 0.236779 32.5779 0.145198C32.4863 0.0536182 32.3621 0.00216351 32.2326 0.00215056H9.76745C9.73699 -0.000716855 9.70634 -0.000716855 9.67588 0.00215056ZM10.2558 0.978834H31.7442V9.23492V13.1874C31.7429 13.2078 31.7429 13.2282 31.7442 13.2485V20.5126C31.7441 20.5176 31.7441 20.5227 31.7442 20.5277L30.7827 21.0466L21 26.2964L11.2173 21.0467L10.2558 20.5279C10.2559 20.5228 10.2559 20.5178 10.2558 20.5127V13.2792C10.2587 13.2487 10.2587 13.218 10.2558 13.1876V9.28083C10.2587 9.25037 10.2587 9.21974 10.2558 9.18929V0.978834ZM9.27908 10.2421V13.1874C9.27781 13.2078 9.27781 13.2282 9.27908 13.2485V20.009L1.60248 15.8886L9.27908 10.2421ZM32.7209 10.2421L40.3975 15.8886L32.7209 20.009V13.279C32.7238 13.2486 32.7238 13.2179 32.7209 13.1874V10.2421ZM0.976758 16.6669L10.7595 21.9166L15.3837 24.4041L1.14464 36.7348C1.05335 36.8127 0.993657 36.9212 0.976758 37.04V16.6669ZM41.0232 16.6669V37.0553C41.01 36.931 40.95 36.8164 40.8554 36.7348L26.6163 24.4041L31.2405 21.9166L41.0232 16.6669ZM16.3147 24.8925L20.7711 27.2884C20.8416 27.3258 20.9202 27.3453 21 27.3453C21.0798 27.3453 21.1584 27.3258 21.2289 27.2884L25.6853 24.8925L39.7871 37.1163H2.21295L16.3147 24.8925Z" fill="#021A13"/>
</svg>
