<svg width="46" height="46" viewBox="0 0 46 46" fill="none" xmlns="http://www.w3.org/2000/svg">
<path d="M23 0.200195C35.572 0.200195 45.7998 10.428 45.7998 23C45.7998 35.572 35.572 45.7998 23 45.7998C10.4294 45.7998 0.20158 35.5726 0.200195 23.002V22.998L0.208008 22.4102C0.522211 10.11 10.6259 0.200195 23 0.200195ZM23.6729 5.02148C23.6729 5.39296 23.3715 5.69531 23 5.69531C22.6285 5.69531 22.3271 5.39296 22.3271 5.02148V1.56055L22.1191 1.56836C10.9893 2.021 2.021 10.9893 1.56836 22.1191L1.56055 22.3271H5.02148C5.39296 22.3271 5.69531 22.6285 5.69531 23C5.69531 23.3715 5.39296 23.6729 5.02148 23.6729H1.56055L1.56836 23.8809C2.021 35.0107 10.9893 43.979 22.1191 44.4316L22.3271 44.4395V40.9785C22.3271 40.607 22.6285 40.3047 23 40.3047C23.3715 40.3047 23.6729 40.607 23.6729 40.9785V44.4395L23.8809 44.4316C35.0107 43.979 43.979 35.0107 44.4316 23.8809L44.4404 23.6729H40.9785C40.607 23.6729 40.3047 23.3715 40.3047 23C40.3047 22.6285 40.607 22.3271 40.9785 22.3271H44.4395L44.4316 22.1191C43.9797 10.9893 35.0107 2.021 23.8809 1.56836L23.6729 1.56055V5.02148Z" fill="#021A13" stroke="white" stroke-width="0.4"/>
<path d="M29.04 27.8491C29.0389 27.8518 29.0377 27.8562 29.0361 27.8599C29.0342 27.8646 29.0317 27.8705 29.0293 27.8774C28.9982 27.9626 28.9588 28.0354 28.9102 28.0923L28.9092 28.0933C28.848 28.164 28.7708 28.2209 28.6836 28.2612L28.5547 28.2944V28.3198L13.4268 35.0415C13.3389 35.0803 13.2455 35.0991 13.1533 35.0991C13.0345 35.0991 12.917 35.068 12.8135 35.0073L12.7148 34.936H12.7139C12.541 34.7871 12.457 34.563 12.4854 34.3413L12.5049 34.2466L16.9482 18.1841C16.9473 18.1864 16.9464 18.1881 16.9473 18.186L16.9482 18.1812L16.9521 18.1733C16.954 18.1687 16.9557 18.162 16.958 18.1548L16.959 18.1558C16.9593 18.1551 16.9595 18.1538 16.96 18.1528C16.9621 18.1478 16.9686 18.1339 16.9736 18.1187L16.9727 18.1177C17.0292 17.9627 17.1405 17.8359 17.2861 17.7583L17.2852 17.7573C17.2934 17.7529 17.3008 17.7496 17.3057 17.7466C17.3081 17.7451 17.3109 17.7437 17.3125 17.7427L17.3164 17.7407L17.3398 17.7261L32.5742 10.9585C32.7819 10.8662 33.0204 10.8856 33.209 11.0063L33.2871 11.0649C33.4601 11.2139 33.544 11.4379 33.5156 11.6597L33.4971 11.7544L29.0518 27.8188C29.0507 27.8212 29.0492 27.8243 29.0479 27.8276L29.0391 27.856L29.0381 27.8569C29.0389 27.8539 29.0394 27.8511 29.04 27.8491ZM17.8818 19.854L14.2939 32.8247L14.1807 33.2319L14.5674 33.0601L26.8662 27.5962L27.1543 27.4683L26.915 27.2622L18.2051 19.7563L17.9668 19.5503L17.8818 19.854ZM31.4316 12.939L19.1338 18.4028L18.8447 18.5308L19.084 18.7368L27.7939 26.2427L28.0332 26.4487L28.1172 26.145L31.7061 13.1753L31.8184 12.7671L31.4316 12.939Z" fill="#021A13" stroke="white" stroke-width="0.4"/>
</svg>
