<svg width="36" height="46" viewBox="0 0 36 46" fill="none" xmlns="http://www.w3.org/2000/svg">
<path d="M6.66526 45.9986C6.08487 45.9986 5.54155 45.769 5.13477 45.3515C4.7198 44.9251 4.49984 44.3593 4.51588 43.7586L5.23139 19.8891L5.03246 19.7821C1.97541 18.14 0 14.4277 0 10.3239C0 4.63144 3.7665 0 8.39646 0C13.0264 0 16.7929 4.63144 16.7929 10.3239C16.7929 14.4277 14.8175 18.14 11.7605 19.7821L11.5615 19.8891L12.277 43.7579C12.2931 44.3586 12.0731 44.9251 11.6578 45.3519C11.2514 45.769 10.7081 45.9986 10.1277 45.9986H6.66526ZM8.39646 0.730136C4.16935 0.730136 0.730127 5.03395 0.730127 10.3239C0.730127 14.3311 2.74974 17.9486 5.75545 19.3261C5.88914 19.3875 5.97257 19.5222 5.96793 19.6691L5.24529 43.7793C5.23495 44.1807 5.38148 44.5576 5.65777 44.842C5.92658 45.1173 6.28415 45.2684 6.66526 45.2684H10.1277C10.5088 45.2684 10.8663 45.1173 11.1344 44.8428C11.4114 44.5576 11.558 44.1796 11.5476 43.7782L10.825 19.6691C10.8204 19.5222 10.9038 19.3875 11.0378 19.3258C14.0432 17.9486 16.0628 14.3311 16.0628 10.3239C16.0628 5.03395 12.6236 0.730136 8.39646 0.730136Z" fill="#021A13"/>
<path d="M25.6487 46C25.0683 46 24.5249 45.7704 24.1182 45.3529C23.7032 44.9265 23.4832 44.3608 23.4993 43.76L24.2148 19.8905L24.0159 19.7836C20.9588 18.1415 18.9834 14.4291 18.9834 10.3253C18.9834 7.36518 20.0173 4.54624 21.8198 2.59041C21.8886 2.51555 21.9866 2.47277 22.0886 2.47277C22.1278 2.47277 22.1667 2.47918 22.2037 2.49166C22.3403 2.53729 22.4376 2.65886 22.4515 2.80147L23.2005 10.3777C23.228 10.6558 23.4529 10.8658 23.7242 10.8658H24.7717C25.044 10.8658 25.2761 10.6462 25.2996 10.3659L26.115 0.409276C26.1282 0.244924 26.2504 0.109449 26.4127 0.0795021C26.6943 0.0274515 27.0287 0 27.3799 0C27.731 0 28.0654 0.0274515 28.3471 0.0795021C28.5093 0.109449 28.6316 0.244924 28.6447 0.408919L29.4601 10.3688C29.4833 10.6476 29.7136 10.8658 29.9849 10.8658H31.0323C31.3046 10.8658 31.5314 10.6551 31.5595 10.3756L32.3082 2.80183C32.3221 2.65886 32.4194 2.53729 32.5556 2.49166C32.5927 2.47954 32.6316 2.47312 32.6708 2.47312C32.7731 2.47312 32.8711 2.5159 32.9403 2.59077C34.7424 4.54624 35.7763 7.36518 35.7763 10.3253C35.7763 14.4291 33.8009 18.1415 30.7439 19.7836L30.5449 19.8905L31.2604 43.7593C31.2765 44.36 31.0565 44.9265 30.6412 45.3533C30.2348 45.7704 29.6915 46 29.1111 46H25.6487ZM21.2337 4.59651C20.239 6.26284 19.7135 8.24398 19.7135 10.3253C19.7135 14.3325 21.7331 17.95 24.7389 19.3276C24.8725 19.3889 24.956 19.5237 24.9513 19.6705L24.2287 43.7807C24.2184 44.1821 24.3649 44.559 24.6412 44.8435C24.91 45.1187 25.2676 45.2699 25.6487 45.2699H29.1111C29.4922 45.2699 29.8497 45.1187 30.1178 44.8442C30.3948 44.559 30.5414 44.1811 30.531 43.7796L29.8084 19.6705C29.8038 19.5237 29.8872 19.3889 30.0212 19.3272C33.0266 17.95 35.0462 14.3325 35.0462 10.3253C35.0462 8.24398 34.5207 6.26284 33.526 4.59651L32.9585 3.64498L32.2861 10.4462C32.2216 11.1018 31.6825 11.5959 31.0323 11.5959H29.9849C29.336 11.5959 28.7863 11.0829 28.7328 10.4283L27.9399 0.746892L27.6155 0.735484C27.5399 0.732632 27.4601 0.731206 27.3799 0.731206C27.2996 0.731206 27.2198 0.732632 27.1442 0.735484L26.8198 0.746892L26.0273 10.4244C25.9734 11.0815 25.4219 11.5959 24.7717 11.5959H23.7242C23.0757 11.5959 22.5381 11.1028 22.474 10.4494L21.8012 3.64498L21.2337 4.59651Z" fill="#021A13"/>
</svg>
