<svg width="46" height="35" viewBox="0 0 46 35" fill="none" xmlns="http://www.w3.org/2000/svg">
<path d="M28.1465 12.3469C29.093 12.4055 30.1845 12.4621 31.0281 12.4591C31.7167 12.4562 32.2145 12.5366 32.2145 12.5018V12.4949L32.3344 7.49872C30.5263 7.33682 28.8661 7.47787 27.3379 8.01026C25.7387 8.56749 24.2765 9.55679 22.9331 11.0805C22.3494 11.7867 21.9047 12.5018 21.5758 13.2011C21.207 13.9828 20.9841 14.7447 20.8732 15.4519C20.7812 16.0419 20.8342 16.5107 20.9661 16.7431C20.9891 16.7838 21.0061 16.8067 21.0151 16.8097C21.0241 16.8127 21.0071 16.8017 21.0201 16.7928C21.179 16.6776 21.3659 16.3339 21.5518 15.6833C21.7028 15.1539 21.8697 14.5877 22.0926 14.1129C22.3374 13.5915 22.6533 13.1862 23.0941 13.0531L23.264 13.6123C23.0131 13.6888 22.8052 13.9788 22.6253 14.3603C22.4244 14.7884 22.2655 15.3327 22.1195 15.8422C21.8947 16.6299 21.6228 17.0788 21.3659 17.2646C21.188 17.3937 21.0081 17.4225 20.8352 17.3679C20.6803 17.3182 20.5513 17.201 20.4534 17.0292C20.2645 16.6964 20.1785 16.0856 20.2915 15.3625C20.4104 14.6046 20.6493 13.7881 21.0421 12.9528C21.3919 12.2098 21.8647 11.451 22.4824 10.704L22.4884 10.6971C23.9026 9.09194 25.4479 8.04801 27.144 7.45701C28.8352 6.868 30.6692 6.73291 32.6652 6.94249L32.9361 6.9713L32.8032 12.5088C32.7942 12.9041 32.0525 13.0402 31.0301 13.0442C30.1575 13.0472 29.0591 12.9905 28.1115 12.9319L28.1465 12.3469ZM35.7617 3.39452C36.4483 2.67638 37.2219 2.20954 38.1155 1.85991C39.036 1.49935 40.0765 1.26593 41.2819 1.00768C41.5318 0.887496 41.6277 0.734532 41.7717 0.504092C41.8256 0.415691 41.7477 0.53985 41.8166 0.429597C41.9346 0.242861 42.0675 0.123668 42.2104 0.0581123C42.3254 0.00546883 42.4433 -0.00943028 42.5593 0.00546883C42.6682 0.0193747 42.7702 0.0581123 42.8651 0.116715C43.107 0.267693 43.3189 0.561702 43.4598 0.866637C43.5288 1.01761 43.6047 1.25401 43.6627 1.52418C43.7427 1.89666 43.7936 2.34562 43.7547 2.73995C43.7097 3.19686 43.5428 3.58821 43.1709 3.75806C43.114 3.78388 43.054 3.80375 42.992 3.81765C42.6472 3.89016 42.4663 3.75011 42.2744 3.60013C42.2104 3.55046 42.1435 3.49782 42.0815 3.47696C41.8156 3.38459 41.2189 3.52364 40.5703 3.74316C39.8346 3.99247 39.063 4.33912 38.6003 4.58247C40.4883 5.62243 42.3674 8.13045 43.7567 10.8699C45.4128 14.1358 46.3853 17.7592 45.8546 19.6286C45.7167 20.1143 45.4998 20.4212 45.1949 20.6566C44.9071 20.8791 44.5612 21.0192 44.1285 21.187L44.1205 21.189L43.6017 21.3757C43.4858 22.5319 42.7502 22.4803 41.8716 22.4177C41.2299 22.372 40.4843 22.3194 40.0155 23.0405C39.7267 23.4865 39.4528 24.0814 39.183 24.6714C38.8861 25.3161 38.5943 25.9537 38.2744 26.4136C38.3684 26.6212 38.4143 26.8248 38.4143 27.0344C38.4153 27.2976 38.3434 27.5579 38.2034 27.834C37.204 29.7987 30.4553 32.0068 22.4504 33.4381C15.0371 34.7631 6.5194 35.4475 0.511422 34.6767L0.462447 34.6707L0.420468 34.6509C0.330513 34.6071 0.268545 34.5654 0.210574 34.4979C0.1586 34.4373 0.125617 34.3737 0.0876357 34.2814C-0.0522939 33.9337 -0.012314 33.6665 0.120619 33.441C0.23756 33.2414 0.41747 33.1033 0.599378 32.9712L0.602377 32.9692L0.65435 32.9315C0.626365 32.9206 0.599378 32.9077 0.573391 32.8938C0.383487 32.7895 0.248555 32.6226 0.282538 32.3564L0.288535 32.3097L0.307525 32.268C0.543406 31.7664 0.637359 31.5657 0.732311 31.3621C1.58388 29.5365 2.36549 27.8598 3.42596 26.0104C3.47193 25.9289 3.35899 25.7124 3.26304 25.5316H3.26204C3.23105 25.472 3.20107 25.4144 3.16709 25.3399C2.66434 24.2284 2.80827 24.1589 3.41496 23.8669C3.46793 23.8411 3.52491 23.8132 3.55189 23.8003C5.00316 23.0613 5.70881 21.9459 6.5154 20.6715C6.72829 20.3348 6.94818 19.9872 7.17707 19.6514C8.03863 18.384 9.60085 16.1561 10.8732 14.5361C11.5828 13.6342 12.2175 12.915 12.6283 12.632C12.6113 12.3091 12.6593 11.9178 12.8362 11.5423C12.9682 11.2632 13.1691 10.9941 13.4629 10.7676C13.368 10.5282 13.361 10.261 13.4329 10.0197C13.4829 9.8498 13.5718 9.69187 13.6958 9.56275C13.8237 9.43064 13.9876 9.33131 14.1835 9.28364C14.4204 9.22603 14.7003 9.24589 15.0131 9.38098L14.9931 8.87242V8.86746C14.9422 6.96832 17.0381 6.80641 19.6758 6.6018C19.8937 6.58491 20.1166 6.56803 20.3704 6.54618C22.7312 4.58744 25.218 3.5445 27.5728 3.06872C30.7642 2.4231 33.7087 2.82239 35.7617 3.39452ZM38.3304 2.40522C37.4628 2.74591 36.7212 3.20282 36.0745 3.91996L35.9506 4.05802L35.7727 4.00637C33.7827 3.42829 30.8611 3.00118 27.6907 3.64184C25.3989 4.10471 22.9761 5.12679 20.6783 7.05473L20.6053 7.11631L20.5124 7.12327C20.2705 7.14413 19.9916 7.16598 19.7188 7.18684C17.3959 7.36662 15.5499 7.50965 15.5818 8.84958L15.6498 10.5232L15.1511 10.1418C14.7982 9.87265 14.5214 9.80411 14.3245 9.85278C14.2425 9.87265 14.1745 9.91437 14.1206 9.969C14.0636 10.0286 14.0226 10.1031 13.9986 10.1845C13.9487 10.3514 13.9716 10.5391 14.0816 10.6732L14.2965 10.9374L14.0026 11.1103C13.6868 11.297 13.4879 11.5384 13.37 11.7897C13.21 12.1284 13.193 12.4869 13.233 12.7502L13.274 13.0243L12.9981 13.0799C12.7932 13.1216 12.1396 13.8755 11.338 14.8966C10.0846 16.4898 8.52839 18.7118 7.66582 19.9792C7.42394 20.3348 7.21605 20.6646 7.01315 20.9844C6.16258 22.3293 5.41695 23.5073 3.81976 24.3208C3.7438 24.3595 3.70581 24.3774 3.67083 24.3943C3.48093 24.4857 3.43595 24.5075 3.70482 25.1015C3.71981 25.1343 3.75179 25.1959 3.78577 25.2604V25.2614C3.94769 25.5713 4.14259 25.9428 3.9387 26.2994C2.89322 28.1231 2.11462 29.7918 1.26804 31.6075C1.12611 31.9104 0.981186 32.2203 0.898228 32.3971C0.942206 32.413 0.995179 32.4219 1.03916 32.4269C1.41697 32.4388 1.57289 32.561 1.56789 32.7974C1.56489 33.011 1.36199 33.153 1.07114 33.3566L0.943205 33.446V33.445C0.81327 33.5394 0.688333 33.6347 0.628364 33.737C0.583386 33.8125 0.574391 33.9138 0.63436 34.0628C0.642356 34.0817 0.648353 34.0956 0.652351 34.1046C6.59536 34.8545 15.0111 34.1731 22.3464 32.862C30.1875 31.4605 36.7622 29.3686 37.6767 27.5698C37.7757 27.3761 37.8266 27.2013 37.8256 27.0344C37.8256 26.8735 37.7757 26.7086 37.6737 26.5308L37.5768 26.361L37.6977 26.206C38.0185 25.7968 38.3304 25.1174 38.6472 24.4281C38.9271 23.8172 39.2109 23.1984 39.5198 22.7236C40.1785 21.7095 41.111 21.776 41.9136 21.8327C42.5073 21.8754 42.999 21.9101 43.027 21.1552L43.034 20.9576L43.9146 20.6417V20.6407C44.3024 20.4897 44.6122 20.3656 44.8351 20.1938C45.039 20.0358 45.1869 19.8203 45.2869 19.4707C45.7786 17.7384 44.8291 14.2848 43.2299 11.1331C41.7747 8.26454 39.7916 5.67011 37.8836 4.88642L37.4618 4.71359L37.7937 4.40269C38.0046 4.20404 39.2509 3.57033 40.3814 3.18792C41.137 2.93265 41.8666 2.78266 42.2754 2.92371C42.4323 2.97834 42.5383 3.05979 42.6392 3.13925C42.7192 3.20182 42.7941 3.25943 42.8691 3.24354C42.8911 3.23957 42.9101 3.23361 42.9261 3.22566C43.071 3.16011 43.142 2.94556 43.1679 2.68234C43.2009 2.35655 43.156 1.97016 43.086 1.64536C43.036 1.41492 42.976 1.22322 42.9241 1.10999C42.8261 0.897429 42.6922 0.70076 42.5533 0.614346C42.5263 0.598453 42.5033 0.587527 42.4853 0.585541C42.4763 0.584547 42.4653 0.585541 42.4543 0.590507C42.4163 0.608386 42.3704 0.65507 42.3184 0.738505C42.2174 0.899415 42.2974 0.771283 42.2724 0.811014C42.0655 1.14277 41.9316 1.3593 41.4978 1.55498L41.4698 1.56689L41.4378 1.57385C40.2454 1.83011 39.2179 2.05757 38.3304 2.40522ZM26.7062 12.2595C27.7907 12.2565 28.7802 12.3946 29.5018 12.621C30.3224 12.8773 30.8372 13.2736 30.8521 13.7484V13.7673C30.8531 14.2212 30.4024 14.6036 29.6607 14.8629C29.0161 15.0873 28.1235 15.2383 27.124 15.2691C27.0141 15.2721 26.9001 15.2741 26.7812 15.2741C25.6967 15.2771 24.7082 15.139 23.9856 14.9135C23.165 14.6563 22.6503 14.2599 22.6363 13.7852L22.6353 13.7663C22.6343 13.3124 23.0851 12.9299 23.8277 12.6717C24.4724 12.4462 25.3649 12.2952 26.3644 12.2654C26.4734 12.2615 26.5883 12.2595 26.7062 12.2595ZM29.3269 13.1802C28.6553 12.9707 27.7287 12.8415 26.7062 12.8445C26.6003 12.8445 26.4913 12.8465 26.3804 12.8495C25.4429 12.8783 24.6133 13.0174 24.0206 13.224C23.5258 13.3968 23.224 13.5895 23.224 13.7663C23.224 13.7683 23.224 13.7653 23.224 13.7693C23.23 13.9649 23.5878 14.1745 24.1615 14.3533C24.8332 14.5639 25.7597 14.692 26.7812 14.689C26.8881 14.689 26.9971 14.687 27.108 14.6841C28.0446 14.6553 28.8741 14.5162 29.4668 14.3096C29.9626 14.1368 30.2644 13.9441 30.2634 13.7673C30.2634 13.7653 30.2634 13.7683 30.2634 13.7643C30.2575 13.5686 29.8996 13.36 29.3269 13.1802ZM31.119 12.4671C33.205 12.9736 34.4703 13.5507 35.091 14.1725C35.9236 15.0069 35.7157 15.879 34.8002 16.7501C33.9926 17.5199 32.5903 18.2926 30.8731 19.0336C24.5203 21.779 13.7398 24.1619 13.284 24.2473L13.175 23.6712C13.6288 23.5868 24.3354 21.2198 30.6383 18.4972C32.2954 17.7811 33.6387 17.0451 34.3924 16.3279C35.038 15.7131 35.207 15.1201 34.6732 14.5857C34.1265 14.0374 32.9531 13.515 30.9801 13.0362L31.119 12.4671ZM1.58488 30.0133L1.59388 30.0142C4.9312 30.3818 9.64283 30.9002 12.0286 25.8624L12.1785 25.5455C15.0641 19.4498 17.335 14.6523 24.3734 8.91513L24.7482 9.36707C17.8107 15.0218 15.5658 19.7657 12.7123 25.7938L12.5614 26.1117V26.1127C9.99665 31.529 5.04014 30.9837 1.52991 30.5973L1.51991 30.5963L1.58488 30.0133ZM30.8521 13.7484C30.8531 13.7683 30.8521 14.1785 30.8502 14.4854C30.8482 14.6801 30.8452 14.843 30.8402 14.8698C30.7542 15.3009 30.2365 15.6614 29.4509 15.8978C28.7512 16.1084 27.8127 16.2385 26.7812 16.2415C25.7997 16.2445 24.8971 16.1323 24.2015 15.9435C23.4369 15.7369 22.8912 15.4231 22.7092 15.0476C22.6583 14.9413 22.6503 14.2311 22.6463 13.955V13.954C22.6463 13.9063 22.6453 13.8745 22.6453 13.8606L23.234 13.8447C23.234 13.8507 23.235 13.8904 23.235 13.948C23.238 14.1874 23.235 14.7824 23.24 14.7923C23.3449 15.0079 23.7537 15.2145 24.3564 15.3774C25.0091 15.5542 25.8567 15.6595 26.7812 15.6565C27.7537 15.6545 28.6313 15.5333 29.2799 15.3376C29.8537 15.1648 30.2205 14.9592 30.2604 14.7576C30.2614 14.7526 30.2604 14.6414 30.2614 14.4824C30.2634 14.1825 30.2644 13.7832 30.2634 13.7643L30.8521 13.7484ZM32.6043 12.2237L41.3549 15.1877C42.2774 15.5005 42.8031 16.3508 43.119 17.4742C43.4168 18.534 43.5278 19.8372 43.6157 21.1463L43.027 21.185C42.9411 19.9057 42.8341 18.6353 42.5513 17.6301C42.2864 16.6875 41.8686 15.9813 41.165 15.7429L32.4144 12.779L32.6043 12.2237ZM32.6632 6.94249C35.7477 7.23153 37.9026 8.45922 39.5158 10.3097C41.113 12.1403 42.1665 14.5728 43.069 17.3023L42.5083 17.4831C41.6277 14.8192 40.6042 12.4522 39.071 10.6931C37.5538 8.95288 35.5228 7.7977 32.6083 7.52554L32.6632 6.94249ZM1.17009 32.4458C6.27652 33.1341 14.3175 32.5382 21.7018 31.2131C28.8212 29.9358 35.3129 27.987 37.9466 25.8683L38.3184 26.3223C35.6048 28.5055 29.0111 30.496 21.8057 31.7892C14.3674 33.1242 6.25753 33.7231 1.09213 33.0259L1.17009 32.4458ZM3.54789 26.9957C3.46594 27.1506 3.45194 27.249 3.48393 27.3026C3.50691 27.3414 3.55989 27.3721 3.63085 27.396C3.7358 27.4298 3.86973 27.4437 4.01866 27.4397C4.55239 27.4228 5.21905 27.1755 5.49291 26.7672L10.9372 18.6433C11.4479 17.8804 11.5089 17.2825 11.34 16.8981C11.282 16.768 11.197 16.6627 11.0951 16.5872C10.9941 16.5117 10.8752 16.464 10.7493 16.4471C10.4454 16.4054 10.0966 16.5425 9.83473 16.8961L9.35897 16.5494C9.76277 16.0051 10.3255 15.7985 10.8282 15.8671C11.0531 15.8969 11.266 15.9833 11.4479 16.1193C11.6298 16.2544 11.7797 16.4382 11.8797 16.6637C12.1216 17.211 12.0676 18.0125 11.4279 18.9671L5.98467 27.091C5.60286 27.6592 4.7263 28.0029 4.03765 28.0247C3.82176 28.0317 3.61886 28.0078 3.44694 27.9512C3.24205 27.8837 3.07813 27.7695 2.97818 27.6056C2.84125 27.3781 2.83525 27.0841 3.02616 26.7225L3.54789 26.9957ZM2.99617 24.299C3.81976 23.5719 4.46243 23.5083 5.04814 23.9434C5.55888 24.3228 5.97867 25.1115 6.43544 26.1782L5.89371 26.4077C5.47392 25.4303 5.10311 24.7171 4.69532 24.4132C4.36148 24.1659 3.95569 24.2364 3.38797 24.738L2.99617 24.299ZM20.5094 6.53922C21.3409 6.6018 21.6628 7.02593 21.6138 7.66162C21.5558 8.42148 20.8352 9.52401 19.8227 10.5838C18.8342 11.6198 17.5578 12.6339 16.3574 13.2498C14.7922 14.0523 13.336 14.1924 12.6793 12.927L13.203 12.6588C13.6638 13.5458 14.8172 13.3799 16.0876 12.7283C17.229 12.1433 18.4484 11.1738 19.3959 10.1806C20.3215 9.21113 20.9781 8.23971 21.0251 7.61792C21.0471 7.34179 20.8832 7.15505 20.4654 7.12327L20.5094 6.53922ZM15.4299 9.63426C16.0456 10.0544 16.4614 10.3852 16.7642 10.8004C17.0711 11.2195 17.249 11.7052 17.3859 12.4264L16.8062 12.5336C16.6863 11.9039 16.5374 11.4877 16.2865 11.144C16.0316 10.7954 15.6588 10.5004 15.0981 10.118L15.4299 9.63426ZM21.3679 7.62487C20.5373 7.83147 19.8477 7.97649 19.277 8.09667C17.4319 8.48604 16.9661 8.58437 16.9442 9.77233L16.9192 11.1242L16.3305 11.1152L16.3554 9.76239C16.3864 8.1076 16.9432 7.9904 19.155 7.52356C19.7188 7.40436 20.4004 7.26034 21.224 7.05572L21.3679 7.62487ZM13.7038 10.6057C14.0956 10.3772 14.6863 10.5004 15.318 10.8927C15.8727 11.2384 16.4824 11.7986 17.0141 12.5028L16.5434 12.8535C16.0546 12.2068 15.5039 11.6983 15.0061 11.3884C14.5623 11.1123 14.1915 11 14.0016 11.1103L13.7038 10.6057ZM37.8856 4.88741L35.4928 3.92791L35.7117 3.38459L38.1045 4.34409L37.8856 4.88741ZM36.9041 3.08462C36.8062 3.05879 36.7482 2.95748 36.7752 2.86014C36.8022 2.7628 36.9031 2.70618 37.0011 2.732C37.209 2.78862 37.4019 2.87404 37.5698 2.97138C37.7657 3.08561 37.9286 3.21772 38.0435 3.33989C38.1125 3.41438 38.1075 3.5296 38.0325 3.59814C37.9586 3.66668 37.8426 3.66171 37.7737 3.58821C37.6817 3.48987 37.5478 3.3826 37.3839 3.28724C37.2409 3.20381 37.079 3.13229 36.9041 3.08462ZM38.4193 3.25447C38.3494 3.18096 38.3514 3.06574 38.4243 2.99522C38.4983 2.92569 38.6142 2.92768 38.6852 3.00019C38.8331 3.15514 38.9551 3.32698 39.048 3.49683C39.158 3.69548 39.2299 3.89215 39.2639 4.05505C39.2849 4.15437 39.2209 4.25072 39.121 4.27158C39.021 4.29244 38.9241 4.22887 38.9031 4.12954C38.8761 3.99843 38.8161 3.83752 38.7252 3.67164C38.6462 3.52861 38.5443 3.38359 38.4193 3.25447ZM38.4673 2.14101C38.3864 2.08042 38.3704 1.9652 38.4313 1.88474C38.4923 1.80429 38.6082 1.78839 38.6892 1.84898C38.8611 1.97712 39.008 2.12809 39.128 2.28205C39.2669 2.46084 39.3699 2.6436 39.4288 2.79955C39.4658 2.89391 39.4178 2.9992 39.3229 3.03595C39.2269 3.0717 39.121 3.02403 39.085 2.92967C39.036 2.80352 38.9521 2.65354 38.8361 2.50554C38.7362 2.37741 38.6122 2.25027 38.4673 2.14101ZM39.7857 2.66347C39.7287 2.58003 39.7497 2.4668 39.8326 2.40919C39.9166 2.35158 40.0315 2.37244 40.0895 2.45587C40.2114 2.63268 40.3034 2.8214 40.3684 3.00317C40.4443 3.21573 40.4833 3.42134 40.4913 3.58821C40.4953 3.68952 40.4163 3.77494 40.3154 3.77892C40.2134 3.78388 40.1275 3.70541 40.1235 3.6041C40.1175 3.471 40.0845 3.30314 40.0205 3.12435C39.9656 2.97039 39.8886 2.81047 39.7857 2.66347ZM40.1565 1.60663C40.0855 1.53412 40.0875 1.4179 40.1605 1.34738C40.2324 1.27785 40.3494 1.27885 40.4203 1.35135C40.5703 1.50432 40.6932 1.67516 40.7871 1.84402C40.8991 2.04267 40.9721 2.23934 41.008 2.40124C41.029 2.49958 40.9661 2.59791 40.8661 2.61877C40.7672 2.64062 40.6682 2.57705 40.6472 2.47872C40.6182 2.34661 40.5583 2.1857 40.4663 2.02181C40.3864 1.87978 40.2824 1.73575 40.1565 1.60663ZM41.4958 2.18074C41.4538 2.08836 41.4958 1.9801 41.5887 1.93838C41.6817 1.89766 41.7906 1.93838 41.8326 2.03075C41.9206 2.22444 41.9766 2.42707 42.0085 2.61877C42.0445 2.84126 42.0465 3.05085 42.0235 3.21573C42.0105 3.31605 41.9176 3.38657 41.8166 3.37267C41.7157 3.35975 41.6457 3.26738 41.6587 3.16706C41.6767 3.03396 41.6747 2.86212 41.6447 2.67638C41.6187 2.51547 41.5708 2.34562 41.4958 2.18074ZM39.5018 22.7584C40.3644 20.8354 40.5083 19.9305 40.0425 19.7239C39.2799 19.3862 37.073 20.3338 33.7927 21.7413C28.4943 24.0159 20.4614 27.4635 10.7673 28.5939L10.7003 28.0118C20.3065 26.8914 28.2914 23.4636 33.5598 21.2029C36.9801 19.7349 39.2819 18.7466 40.2824 19.1896C41.114 19.5581 41.071 20.6973 40.0395 22.9968L39.5018 22.7584ZM31.2929 2.74094C32.4513 2.83034 33.7007 3.44915 34.6502 4.47123C35.4818 5.36617 36.0865 6.57101 36.2015 8.00033L35.6128 8.04602C35.5088 6.75874 34.9651 5.67408 34.2165 4.86854C33.3689 3.95572 32.2644 3.40445 31.249 3.32499L31.2929 2.74094Z" fill="#021A13"/>
</svg>
