<svg width="62" height="92" viewBox="0 0 62 92" fill="none" xmlns="http://www.w3.org/2000/svg">
<path d="M49.1927 30.143C49.1927 26.5922 48.1257 23.1211 46.1267 20.1688C44.1276 17.2164 41.2863 14.9153 37.962 13.5565C34.6378 12.1976 30.9798 11.8421 27.4508 12.5348C23.9217 13.2276 20.6801 14.9374 18.1358 17.4482C15.5915 19.959 13.8588 23.1579 13.1569 26.6405C12.4549 30.123 12.8152 33.7328 14.1921 37.0133C15.5691 40.2938 17.9009 43.0977 20.8927 45.0704C23.8844 47.0431 27.4018 48.096 31 48.096C35.8233 48.0906 40.4475 46.1974 43.8581 42.8317C47.2687 39.466 49.1872 34.9027 49.1927 30.143ZM15.0354 30.143C15.0356 27.0271 15.9721 23.9813 17.7264 21.3906C19.4808 18.8 21.9742 16.7808 24.8913 15.5886C27.8085 14.3963 31.0184 14.0845 34.1152 14.6925C37.2119 15.3005 40.0564 16.801 42.289 19.0044C44.5216 21.2077 46.042 24.0148 46.6579 27.0708C47.2738 30.1268 46.9576 33.2945 45.7493 36.1731C44.5409 39.0518 42.4947 41.5122 39.8693 43.2433C37.244 44.9743 34.1575 45.8983 31 45.8983C26.7673 45.8934 22.7093 44.2319 19.7164 41.2782C16.7235 38.3245 15.0401 34.3199 15.0354 30.143ZM54.6465 75.3993C49.7381 73.7568 44.6362 72.7433 39.466 72.3838C49.3657 59.1349 61.9834 41.7941 61.9834 30.5753C61.9834 22.4663 58.7191 14.6893 52.9086 8.95531C47.0981 3.22132 39.2173 0 31 0C22.7827 0 14.9019 3.22132 9.09141 8.95531C3.28089 14.6893 0.0165744 22.4663 0.0165744 30.5753C0.0165744 41.7931 12.6343 59.1329 22.5329 72.3838C17.3224 72.7434 12.1814 73.7709 7.23958 75.4402C1.25546 77.6686 0 80.2446 0 82.0099C0 88.4999 15.9718 92 31 92C46.0282 92 62 88.4999 62 82.012C62 79.4564 59.458 77.1698 54.6465 75.3993ZM31 2.1998C38.6237 2.20819 45.9327 5.20058 51.3233 10.5204C56.714 15.8403 59.746 23.0531 59.7543 30.5764C59.7543 41.5723 46.2343 59.6388 36.3616 72.8305C34.408 75.4402 32.5434 77.9323 31 80.0902C29.4566 77.9323 27.592 75.4412 25.6384 72.8325C15.7657 59.646 2.24573 41.5743 2.24573 30.5784C2.25341 23.0548 5.28523 15.8414 10.676 10.5212C16.0667 5.20086 23.376 2.20819 31 2.1998ZM51.8113 87.2477C45.029 89.0531 38.0239 89.9126 31 89.8012C23.976 89.9119 16.9709 89.0517 10.1887 87.2457C5.27871 85.786 2.22812 83.7814 2.22812 82.014C2.22812 79.0721 10.401 75.4453 24.0764 74.4681H24.0898C26.436 77.6032 28.4673 80.3233 30.0822 82.6396C30.1846 82.7866 30.3216 82.9067 30.4815 82.9898C30.6414 83.0728 30.8193 83.1162 31 83.1162C31.1807 83.1162 31.3586 83.0728 31.5185 82.9898C31.6784 82.9067 31.8154 82.7866 31.9178 82.6396C33.5327 80.3233 35.5629 77.6042 37.9091 74.4701C51.6011 75.4443 59.7719 79.0568 59.7719 82.0161C59.7719 83.7794 56.7213 85.7839 51.8113 87.2437V87.2477Z" fill="#021A13"/>
</svg>
