<svg width="76" height="92" viewBox="0 0 76 92" fill="none" xmlns="http://www.w3.org/2000/svg">
<path d="M76 39.0663C76 25.8393 64.9508 15.0787 51.3681 15.0787C48.6551 15.0787 46.0511 15.5247 43.6079 16.3178C41.1623 6.82044 32.276 0 22.1453 0C9.93487 0 0 9.67435 0 21.567C0 33.0884 9.33198 42.5019 21.0181 43.0788V89.7001H18.4083C17.7608 89.7001 17.2353 90.2139 17.2353 90.8495C17.2353 91.4851 17.7608 91.9989 18.4083 91.9989H25.8823C26.5297 91.9989 27.0552 91.4851 27.0552 90.8495C27.0552 90.2139 26.5297 89.7001 25.8823 89.7001H23.364V43.0961C24.6026 43.0306 25.8283 42.8593 27.0329 42.595C28.7407 53.7957 38.407 62.4758 50.2456 62.9988V89.7012H47.1877C46.5402 89.7012 46.0148 90.215 46.0148 90.8506C46.0148 91.4862 46.5402 92 47.1877 92H55.5473C56.1948 92 56.7203 91.4862 56.7203 90.8506C56.7203 90.215 56.1948 89.7012 55.5473 89.7012H52.5915V62.9942C65.6042 62.3666 76 51.8912 76 39.0663ZM23.364 40.7973V26.7174L31.1242 19.3556C31.5887 18.9131 31.6016 18.1855 31.15 17.7304C30.6996 17.2729 29.9571 17.2637 29.4914 17.7039L23.3628 23.5175V15.373C23.3628 14.7374 22.8373 14.2236 22.1898 14.2236C21.5424 14.2236 21.0169 14.7374 21.0169 15.373V30.1092L14.7979 24.2083C14.3323 23.7669 13.5886 23.7784 13.1394 24.2347C12.689 24.6899 12.7007 25.4174 13.1652 25.8599L21.0169 33.3091V40.7789C10.6246 40.2054 2.34472 31.8206 2.34472 21.5659C2.34472 10.9421 11.2263 2.29762 22.1441 2.29762C31.3001 2.29762 39.3219 8.51922 41.4051 17.1453C32.7769 20.8808 26.7362 29.2932 26.7362 39.0663C26.7362 39.479 26.7784 39.8824 26.7995 40.2904C25.6735 40.5537 24.5252 40.7284 23.364 40.7973ZM29.0821 39.0663C29.0821 27.107 39.0791 17.3775 51.3681 17.3775C63.6571 17.3775 73.6541 27.107 73.6541 39.0663C73.6541 50.6234 64.3104 60.0713 52.5915 60.6954V44.7696L61.3147 36.494C61.7792 36.0515 61.7921 35.324 61.3405 34.8688C60.8913 34.4125 60.1476 34.4022 59.6819 34.8424L52.5915 41.5697V32.1379C52.5915 31.5023 52.066 30.9885 51.4185 30.9885C50.7711 30.9885 50.2456 31.5023 50.2456 32.1379V48.943L43.0531 42.1191C42.5874 41.6789 41.8438 41.6881 41.3945 42.1455C40.9441 42.6007 40.9558 43.3283 41.4203 43.7708L50.2456 52.144V60.7012C38.4809 60.1253 29.0821 50.6579 29.0821 39.0663Z" fill="#021A13"/>
</svg>
