<svg width="33" height="42" viewBox="0 0 33 42" fill="none" xmlns="http://www.w3.org/2000/svg">
<path d="M23.6953 5.19238C25.5372 5.19965 27.0279 5.23102 28.2148 5.38672L28.7051 5.46191C29.899 5.67124 30.8434 6.05841 31.5156 6.82031L31.6465 6.97852C32.2202 7.71187 32.5047 8.67897 32.6572 9.87305L32.7148 10.3984C32.846 11.7976 32.8495 13.6003 32.8496 15.8809V31.0771L32.8467 32.8506C32.8395 34.2422 32.8153 35.4215 32.7344 36.4121L32.6787 36.9844C32.5213 38.3542 32.208 39.4442 31.502 40.2344L31.3555 40.3887C30.6467 41.0886 29.6754 41.4339 28.46 41.6182L27.9248 41.6885C26.4629 41.8501 24.5372 41.8496 22.0566 41.8496H21.916C19.4939 41.8496 17.5971 41.8499 16.1406 41.6953L15.543 41.6191C14.0763 41.397 12.9787 40.9396 12.2646 39.9424L12.127 39.7363C12.0953 39.6853 12.0716 39.6316 12.0547 39.5771L12.0498 39.5625L12.042 39.5488L11.957 39.3887C11.9296 39.3342 11.9025 39.2791 11.877 39.2227L11.7354 38.874C11.6217 38.5612 11.7507 38.2192 12.0273 38.0518L12.1543 37.9912C12.4716 37.8777 12.8169 38.0062 12.9854 38.2803L13.0459 38.4062C13.2116 38.8625 13.4231 39.1853 13.6924 39.4287L13.8115 39.5283C14.1053 39.7562 14.4998 39.9381 15.0547 40.0752L15.3027 40.1318C16.7138 40.4232 18.801 40.4268 22 40.4268C24.221 40.4268 25.9144 40.426 27.2256 40.3242L27.7646 40.2734C29.0598 40.1307 29.8045 39.8656 30.2773 39.4551L30.3682 39.3711C30.7761 38.9704 31.0573 38.3512 31.2275 37.2861L31.2939 36.8027C31.4524 35.4394 31.4579 33.6028 31.458 31.0771V16.127C31.458 14.0061 31.4573 12.3582 31.3711 11.0615L31.3281 10.5264C31.2149 9.31876 31.0085 8.54888 30.6895 8.03125L30.5459 7.82422C30.2141 7.40021 29.7153 7.0982 28.8545 6.89941L28.4629 6.82031C27.6218 6.67276 26.5526 6.61184 25.1738 6.58691L23.6895 6.57227C23.304 6.57067 22.9945 6.25887 22.9961 5.87891L23.0107 5.74023C23.0675 5.4715 23.2822 5.2602 23.5547 5.20605L23.6953 5.19238ZM10.9424 0.150391H11.0576C13.2392 0.150391 14.9915 0.149716 16.377 0.259766L16.9482 0.314453C18.3285 0.469285 19.4287 0.781107 20.2256 1.49023L20.3809 1.6377C21.0847 2.34789 21.4321 3.32286 21.6172 4.54785L21.6875 5.08789C21.8459 6.52668 21.8495 8.41416 21.8496 10.8408V25.9287C21.8496 28.1321 21.8501 29.8994 21.7412 31.2959L21.6875 31.8721C21.5346 33.2605 21.2269 34.3646 20.5264 35.166L20.3809 35.3223C19.6749 36.0347 18.7036 36.3867 17.4854 36.5742L16.9482 36.6455C15.4832 36.8097 13.5509 36.8096 11.0576 36.8096H10.9424C8.76077 36.8096 7.00848 36.8102 5.62305 36.7002L5.05176 36.6455C3.6715 36.4907 2.57132 36.1789 1.77441 35.4697L1.61914 35.3223C0.915328 34.6121 0.567906 33.6371 0.382812 32.4121L0.3125 31.8721C0.167818 30.5575 0.152085 28.8673 0.150391 26.7324V11.0312C0.150391 8.82789 0.149893 7.06053 0.258789 5.66406L0.3125 5.08789C0.465466 3.6994 0.773141 2.59533 1.47363 1.79395L1.61914 1.6377C2.32512 0.925267 3.29637 0.573268 4.51465 0.385742L5.05176 0.314453C6.51676 0.150262 8.44914 0.150391 10.9424 0.150391ZM11 1.53027C8.76362 1.53027 7.06251 1.53094 5.74805 1.63477L5.20801 1.68555C3.91122 1.83102 3.17068 2.10087 2.70215 2.51855L2.6123 2.60449C2.20552 3.01491 1.92806 3.65055 1.76172 4.74121L1.69727 5.2373C1.54362 6.63191 1.54199 8.50874 1.54199 11.0869V25.873C1.54199 28.1291 1.5434 29.8481 1.64648 31.1768L1.69727 31.7227C1.84182 33.0351 2.11046 33.7881 2.52637 34.2637L2.6123 34.3555C3.01699 34.7639 3.64189 35.0419 4.71875 35.209L5.20801 35.2744C6.58745 35.4291 8.44423 35.4297 11 35.4297C13.2364 35.4297 14.9375 35.429 16.252 35.3252L16.792 35.2744C18.0888 35.129 18.8293 34.8591 19.2979 34.4414L19.3877 34.3555C19.7945 33.9451 20.072 33.3094 20.2383 32.2188L20.3027 31.7227C20.4564 30.328 20.458 28.4512 20.458 25.873V11.0869C20.458 8.83081 20.4567 7.11189 20.3535 5.7832L20.3027 5.2373C20.1582 3.92483 19.8895 3.17181 19.4736 2.69629L19.3877 2.60449C18.983 2.19609 18.3581 1.9181 17.2812 1.75098L16.792 1.68555C15.4126 1.53088 13.5558 1.53027 11 1.53027ZM23.6924 8.5498H25.4902C25.8757 8.5498 26.1865 8.86022 26.1865 9.24023C26.1864 9.62014 25.8756 9.92969 25.4902 9.92969H23.6924C23.307 9.92969 22.9962 9.62014 22.9961 9.24023C22.9961 8.86022 23.3069 8.5498 23.6924 8.5498ZM8.46191 3.50977H13.5381C13.9236 3.50977 14.2344 3.82018 14.2344 4.2002C14.2343 4.58012 13.9235 4.88965 13.5381 4.88965H8.46191C8.0765 4.88965 7.76573 4.58012 7.76562 4.2002C7.76562 3.82018 8.07643 3.50977 8.46191 3.50977Z" fill="#021A13" stroke="white" stroke-width="0.3"/>
</svg>
