<svg width="36" height="36" viewBox="0 0 36 36" fill="none" xmlns="http://www.w3.org/2000/svg">
<path d="M0.0555161 3.0913L0.0554923 3.09094C0.0327781 2.74671 0.0806725 2.40149 0.196292 2.0761C0.311912 1.75072 0.492864 1.45191 0.728245 1.19774L0.728423 1.19754C0.964351 0.940062 1.2498 0.731873 1.56804 0.585216C1.88628 0.438558 2.23088 0.356392 2.58162 0.343555L2.58175 0.343549L10.0159 0.0510776C10.016 0.0510745 10.0161 0.0510715 10.0163 0.0510685C10.8572 0.0307789 11.6792 0.299995 12.3424 0.812831C13.0056 1.32568 13.469 2.05044 13.6538 2.86373C13.6538 2.86382 13.6539 2.86391 13.6539 2.864L14.6789 7.58697C14.679 7.58701 14.679 7.58706 14.679 7.58711C14.8305 8.31197 14.7534 9.06552 14.458 9.74543C14.1625 10.4254 13.6631 10.9988 13.0275 11.3877L13.0271 11.3879L11.1832 12.536L11.1556 12.5531L11.1601 12.5852C11.6533 16.1556 14.3018 19.0234 17.0553 21.0953C19.8104 23.1682 22.6802 24.4516 23.6334 24.8508L23.672 24.867L23.6947 24.8319L24.6973 23.2824C24.6974 23.2823 24.6975 23.2822 24.6976 23.282C25.1032 22.6798 25.6823 22.2125 26.3597 21.9411C27.0371 21.6696 27.7814 21.6067 28.4955 21.7605L33.1348 22.7768L33.1348 22.7769C33.9361 22.9517 34.6526 23.3936 35.1648 24.0288C35.6771 24.6639 35.9542 25.4539 35.95 26.2669V26.2672V33.294C35.9451 33.9544 35.6915 34.5892 35.2388 35.0739C34.7863 35.5583 34.1676 35.8577 33.504 35.9135C32.8483 35.9354 32.2297 35.95 31.626 35.95C21.7929 35.95 13.6935 32.3653 7.52248 25.2765C4.54599 21.8551 2.74333 17.4082 1.65268 13.2649C0.562169 9.12215 0.184476 5.28668 0.0555161 3.0913ZM10.1558 1.41358V1.41357H10.1548H10.0663V1.41353L10.0643 1.41361L2.63745 1.70608C2.46989 1.70849 2.30468 1.74566 2.15245 1.81521C2.00023 1.88476 1.86435 1.98516 1.75359 2.10996C1.64034 2.23125 1.55327 2.37425 1.49776 2.53017C1.44221 2.68622 1.41944 2.8519 1.43088 3.01701C1.55641 5.13966 1.92554 8.84674 2.97028 12.8397C4.01491 16.8322 5.73605 21.1146 8.5681 24.3841L8.56817 24.3842C14.8263 31.5773 23.1689 35.0122 33.4059 34.5509L33.4072 34.5508C33.7288 34.528 34.0302 34.3865 34.2519 34.1541C34.4736 33.9217 34.5993 33.6152 34.6043 33.2952V33.2944V26.2678C34.614 25.7597 34.4455 25.2641 34.1275 24.8656C33.8095 24.4671 33.3619 24.1906 32.8611 24.0831C32.861 24.0831 32.861 24.0831 32.8609 24.0831L28.2218 23.0594L28.2213 23.0593C27.7802 22.9668 27.3212 23.007 26.9033 23.1748C26.4854 23.3427 26.1276 23.6306 25.8757 24.0015L25.8753 24.0022L24.8501 25.567C24.6677 25.8438 24.3931 26.0485 24.074 26.1454C23.7549 26.2422 23.4116 26.225 23.104 26.0967L23.1039 26.0967C21.6787 25.5052 18.615 24.0905 15.7738 21.8633C12.932 19.6354 10.3199 16.6003 9.78396 12.7692C9.74734 12.4903 9.79554 12.207 9.92242 11.9554C10.0493 11.7038 10.2492 11.4954 10.4964 11.357L10.4964 11.357L10.4972 11.3565L12.3338 10.2816L12.3339 10.2816L12.3349 10.281C12.7269 10.0384 13.0347 9.68263 13.2168 9.26141C13.3989 8.84019 13.4465 8.37376 13.3533 7.92487L13.3532 7.92443L12.328 3.20099C12.328 3.20092 12.328 3.20086 12.328 3.20079C12.2237 2.70282 11.952 2.25481 11.5573 1.93013C11.1626 1.60542 10.6684 1.42331 10.1558 1.41358Z" fill="#021A13" stroke="white" stroke-width="0.1"/>
</svg>
