<svg width="42" height="31" viewBox="0 0 42 31" fill="none" xmlns="http://www.w3.org/2000/svg">
<path d="M39.2254 25.9559C39.2254 25.9649 39.2254 25.9694 39.2254 25.9784C39.4509 25.7529 39.6764 25.5274 39.9019 25.3019C39.5637 25.3019 39.2299 25.3019 38.8916 25.3019C37.9716 25.3019 37.047 25.3019 36.1269 25.3019C34.7694 25.3019 33.4118 25.3019 32.0542 25.3019C30.39 25.3019 28.7257 25.3019 27.0615 25.3019C25.2439 25.3019 23.4308 25.3019 21.6132 25.3019C19.7821 25.3019 17.9464 25.3019 16.1153 25.3019C14.4015 25.3019 12.6831 25.3019 10.9692 25.3019C9.52597 25.3019 8.08272 25.3019 6.63495 25.3019C5.59311 25.3019 4.55126 25.3019 3.50941 25.3019C3.0178 25.3019 2.5262 25.2839 2.03459 25.3019C2.01204 25.3019 1.994 25.3019 1.97145 25.3019C2.19695 25.5274 2.42246 25.7529 2.64797 25.9784C2.64797 25.5094 2.66601 25.0358 2.69758 24.5668C2.71562 24.3187 2.73817 24.0661 2.76523 23.8181C2.77877 23.7143 2.78779 23.6106 2.80132 23.5114C2.82838 23.3084 2.77877 23.6467 2.81034 23.4437C2.82387 23.3625 2.83289 23.2814 2.84642 23.2002C2.99525 22.235 3.22076 21.2788 3.51843 20.3498C3.66276 19.8987 3.82512 19.4567 4.00102 19.0193C4.01906 18.9742 4.0371 18.9245 4.05965 18.8794C4.13632 18.6945 4.00553 19.0012 4.08671 18.8208C4.13632 18.7126 4.18143 18.5998 4.23104 18.4916C4.33026 18.2751 4.434 18.0586 4.53773 17.8421C4.96168 16.9897 5.45329 16.1733 5.99902 15.3931C6.12531 15.2172 6.25159 15.0413 6.38239 14.8654C6.39141 14.8519 6.51318 14.694 6.41847 14.8158C6.45455 14.7707 6.49063 14.7211 6.52671 14.676C6.6124 14.5677 6.6981 14.4595 6.7883 14.3557C7.08146 13.9994 7.39266 13.6522 7.71288 13.3184C8.35784 12.6419 9.05691 12.015 9.79658 11.4422C9.67932 11.5324 9.83266 11.4151 9.84619 11.4061C9.89129 11.37 9.9409 11.3339 9.99052 11.2979C10.0852 11.2257 10.1799 11.158 10.2792 11.0904C10.4731 10.9506 10.667 10.8198 10.8655 10.689C11.2624 10.4274 11.6683 10.1793 12.0832 9.94932C12.5027 9.7193 12.9266 9.50281 13.3596 9.30436C13.4498 9.26377 13.54 9.22318 13.6347 9.18259C13.6889 9.16004 13.743 9.13298 13.8016 9.11043C13.982 9.02924 13.6753 9.16004 13.8602 9.08337C14.0812 8.99316 14.3067 8.90296 14.5323 8.82178C15.4433 8.48352 16.3814 8.21742 17.3331 8.02348C17.5541 7.97838 17.7751 7.93779 18.0006 7.9017C18.1223 7.88366 18.2441 7.86111 18.3659 7.84307C18.3839 7.83856 18.5869 7.8115 18.4335 7.83405C18.5147 7.82503 18.5959 7.8115 18.6816 7.80248C19.1777 7.74385 19.6783 7.70326 20.179 7.68522C21.1667 7.64462 22.1589 7.68071 23.1376 7.79797C23.2008 7.80699 23.2594 7.8115 23.3226 7.82052C23.3406 7.82052 23.5436 7.85209 23.3902 7.82954C23.512 7.84758 23.6338 7.86562 23.7555 7.88366C23.9991 7.92425 24.2426 7.96485 24.4817 8.01446C24.9597 8.10917 25.4378 8.22193 25.9069 8.35723C26.3714 8.48802 26.8315 8.63686 27.287 8.80374C27.4945 8.88041 27.6974 8.95708 27.9049 9.04278C27.959 9.06533 28.0176 9.08788 28.0718 9.11043C27.9319 9.0518 28.1169 9.12847 28.1304 9.13749C28.2386 9.1871 28.3514 9.2322 28.4596 9.28181C29.3256 9.67871 30.1645 10.1387 30.9628 10.6574C31.3597 10.9145 31.7475 11.1896 32.1219 11.4783C32.0046 11.3881 32.158 11.5053 32.1715 11.5189C32.2121 11.5504 32.2482 11.582 32.2888 11.6091C32.3745 11.6767 32.4556 11.7444 32.5413 11.812C32.7398 11.9744 32.9337 12.1413 33.1231 12.3126C33.8132 12.9305 34.4582 13.598 35.049 14.3106C35.1257 14.4008 35.1978 14.4911 35.2745 14.5858C35.3106 14.6309 35.3467 14.6805 35.3827 14.7256C35.3918 14.7391 35.5135 14.8925 35.4233 14.7752C35.5677 14.9646 35.7075 15.154 35.8428 15.348C36.1179 15.7359 36.375 16.1328 36.623 16.5387C36.8666 16.9446 37.0966 17.364 37.3131 17.788C37.4123 17.9819 37.507 18.1804 37.5972 18.3788C37.6468 18.4871 37.6964 18.5953 37.7461 18.7081C37.7686 18.7622 37.7957 18.8163 37.8182 18.8749C37.7596 18.7396 37.8363 18.9245 37.8408 18.9336C38.2106 19.8311 38.5083 20.7512 38.7338 21.6938C38.8465 22.1719 38.9458 22.6544 39.0224 23.137C39.0405 23.2588 39.0585 23.3806 39.0766 23.5024C39.0585 23.358 39.0946 23.6512 39.0991 23.6918C39.1307 23.9624 39.1577 24.2285 39.1758 24.4991C39.2074 24.9862 39.2254 25.4733 39.2254 25.9559C39.2254 26.3077 39.5366 26.6505 39.9019 26.6324C40.2672 26.6144 40.5784 26.3347 40.5784 25.9559C40.5739 21.8967 39.3066 17.8692 36.9387 14.5677C34.607 11.3204 31.3461 8.83531 27.5892 7.47324C23.7375 6.07509 19.4258 5.94429 15.4884 7.08085C11.6954 8.17231 8.2541 10.4364 5.75998 13.4943C3.18919 16.6424 1.63769 20.5121 1.34453 24.5713C1.30845 25.0403 1.29492 25.5139 1.29492 25.9829C1.29492 26.3483 1.60612 26.6595 1.97145 26.6595C2.30971 26.6595 2.64346 26.6595 2.98172 26.6595C3.9018 26.6595 4.82638 26.6595 5.74645 26.6595C7.10401 26.6595 8.46157 26.6595 9.81913 26.6595C11.4834 26.6595 13.1476 26.6595 14.8119 26.6595C16.6295 26.6595 18.4426 26.6595 20.2602 26.6595C22.0913 26.6595 23.9269 26.6595 25.758 26.6595C27.4719 26.6595 29.1903 26.6595 30.9041 26.6595C32.3474 26.6595 33.7906 26.6595 35.2384 26.6595C36.2803 26.6595 37.3221 26.6595 38.364 26.6595C38.8556 26.6595 39.3472 26.6685 39.8388 26.6595C39.8613 26.6595 39.8794 26.6595 39.9019 26.6595C40.2672 26.6595 40.5784 26.3483 40.5784 25.9829C40.5784 25.9739 40.5784 25.9694 40.5784 25.9604C40.5784 25.6086 40.2672 25.2658 39.9019 25.2839C39.5366 25.2974 39.2254 25.577 39.2254 25.9559Z" fill="#021A13"/>
<path d="M41.3228 29.3629C40.962 29.3629 40.5967 29.3629 40.2358 29.3629C39.2481 29.3629 38.2649 29.3629 37.2772 29.3629C35.8204 29.3629 34.3636 29.3629 32.9023 29.3629C31.1253 29.3629 29.3438 29.3629 27.5668 29.3629C25.6184 29.3629 23.67 29.3629 21.7216 29.3629C19.7552 29.3629 17.7888 29.3629 15.8223 29.3629C13.9867 29.3629 12.1556 29.3629 10.3199 29.3629C8.76844 29.3629 7.22145 29.3629 5.66996 29.3629C4.55595 29.3629 3.44194 29.3629 2.32793 29.3629C1.80024 29.3629 1.27255 29.3539 0.744859 29.3629C0.722308 29.3629 0.699757 29.3629 0.677207 29.3629C0.325414 29.3629 -0.0173585 29.6741 0.000682124 30.0394C0.0187228 30.4047 0.298353 30.7159 0.677207 30.7159C1.03802 30.7159 1.40334 30.7159 1.76416 30.7159C2.75188 30.7159 3.7351 30.7159 4.72282 30.7159C6.17961 30.7159 7.63639 30.7159 9.09768 30.7159C10.8747 30.7159 12.6562 30.7159 14.4332 30.7159C16.3816 30.7159 18.33 30.7159 20.2784 30.7159C22.2448 30.7159 24.2112 30.7159 26.1777 30.7159C28.0133 30.7159 29.8444 30.7159 31.6801 30.7159C33.2316 30.7159 34.7785 30.7159 36.33 30.7159C37.4441 30.7159 38.5581 30.7159 39.6721 30.7159C40.1998 30.7159 40.7275 30.725 41.2551 30.7159C41.2777 30.7159 41.3002 30.7159 41.3228 30.7159C41.6746 30.7159 42.0174 30.4047 41.9993 30.0394C41.9813 29.6741 41.7016 29.3629 41.3228 29.3629Z" fill="#021A13"/>
<path d="M20.2344 0.698691C20.2344 2.54335 20.2344 4.39251 20.2344 6.23717C20.2344 6.49425 20.2344 6.75584 20.2344 7.01292C20.2344 7.36471 20.5456 7.70748 20.9109 7.68944C21.2762 7.6714 21.5874 7.39177 21.5874 7.01292C21.5874 5.16826 21.5874 3.3191 21.5874 1.47444C21.5874 1.21736 21.5874 0.95577 21.5874 0.698691C21.5874 0.346898 21.2762 0.00412585 20.9109 0.0221665C20.5456 0.0402072 20.2344 0.319837 20.2344 0.698691Z" fill="#021A13"/>
<path d="M16.7006 1.35305C17.6568 1.35305 18.6084 1.35305 19.5646 1.35305C21.0845 1.35305 22.609 1.35305 24.1289 1.35305C24.4807 1.35305 24.828 1.35305 25.1797 1.35305C25.5315 1.35305 25.8743 1.04185 25.8563 0.676524C25.8382 0.311201 25.5586 0 25.1797 0C24.2236 0 23.272 0 22.3158 0C20.7959 0 19.2714 0 17.7515 0C17.3997 0 17.0524 0 16.7006 0C16.3489 0 16.0061 0.311201 16.0241 0.676524C16.0422 1.04185 16.3218 1.35305 16.7006 1.35305Z" fill="#021A13"/>
</svg>
