<svg width="46" height="37" viewBox="0 0 46 37" fill="none" xmlns="http://www.w3.org/2000/svg">
<path fill-rule="evenodd" clip-rule="evenodd" d="M19.9943 0.823615C19.9149 0.823615 19.8343 0.834343 19.755 0.855799C19.5213 0.917973 19.3249 1.06816 19.2048 1.27623L16.1569 6.55503C16.0367 6.7631 16.0055 7.00768 16.0677 7.24255C16.1311 7.47739 16.28 7.67263 16.4892 7.79274L35.7676 18.9231L44.6834 14.9399L20.4427 0.944838C20.3042 0.864363 20.1508 0.823645 19.9943 0.823615ZM35.7429 19.7972C35.6722 19.7972 35.6013 19.7779 35.5369 19.7415L16.0775 8.50595C15.6784 8.27643 15.3931 7.90321 15.273 7.456C15.1531 7.00768 15.214 6.5422 15.4435 6.14323L18.4916 0.864364C18.969 0.0385836 20.0285 -0.245632 20.8543 0.231596L45.7944 14.6299C45.9286 14.7071 46.0067 14.853 45.9992 15.0074C45.9908 15.1619 45.8973 15.2992 45.7558 15.3625L35.9114 19.7608C35.8578 19.7854 35.8008 19.7972 35.7429 19.7972Z" fill="#021A13"/>
<path fill-rule="evenodd" clip-rule="evenodd" d="M34.5767 23.2317C34.2044 23.2317 33.8375 23.1341 33.5083 22.9443L15.9729 12.8199C14.9466 12.2268 14.5935 10.9098 15.1856 9.88339L16.212 8.10628C16.3256 7.90993 16.5777 7.84135 16.775 7.95608C16.9714 8.06976 17.0389 8.32186 16.9252 8.51808L15.8988 10.2952C15.5341 10.929 15.7508 11.741 16.3846 12.1066L33.9201 22.2311C34.2258 22.4069 34.5851 22.4541 34.9293 22.3609C35.2717 22.2686 35.5557 22.0498 35.7306 21.7463L37.8275 18.088C37.9399 17.8906 38.1919 17.822 38.3892 17.9357C38.5866 18.0483 38.6542 18.3004 38.5416 18.4977L36.445 22.156C36.1607 22.6515 35.6994 23.0065 35.1439 23.1556C34.9563 23.2071 34.7653 23.2317 34.5767 23.2317Z" fill="#021A13"/>
<path fill-rule="evenodd" clip-rule="evenodd" d="M38.4931 22.3245C37.7648 22.3245 37.0471 22.1337 36.3993 21.7605C36.3437 21.7283 36.2878 21.694 36.2342 21.6596C36.0423 21.5363 35.9864 21.2822 36.1087 21.0902C36.231 20.8992 36.4862 20.8435 36.6782 20.9658C36.7211 20.9936 36.7661 21.0204 36.8112 21.0473C37.5932 21.4977 38.5025 21.6178 39.3745 21.384C40.2455 21.1512 40.9736 20.5925 41.4251 19.8107C41.9584 18.8862 42.0225 17.7493 41.5946 16.7691C41.5035 16.561 41.5989 16.3186 41.808 16.2274C42.0163 16.1363 42.2585 16.2317 42.3496 16.4398C42.8816 17.6581 42.8022 19.0728 42.1383 20.2225C41.5775 21.1942 40.6711 21.8892 39.5869 22.1798C39.2255 22.2774 38.8575 22.3246 38.4931 22.3245Z" fill="#021A13"/>
<path fill-rule="evenodd" clip-rule="evenodd" d="M26.1516 22.0972C25.9072 22.0972 25.6679 22.0339 25.4512 21.9084L20.8986 19.2797C20.5746 19.0931 20.3418 18.7896 20.2442 18.4249C20.1467 18.0613 20.1959 17.6817 20.3836 17.3568L21.4508 15.5099C21.5644 15.3125 21.8154 15.245 22.0127 15.3587C22.2102 15.4723 22.2777 15.7244 22.164 15.9217L21.097 17.7686C21.0198 17.9037 20.9993 18.0603 21.04 18.2115C21.0808 18.3638 21.1762 18.4893 21.3102 18.5665L25.8632 21.1952C25.9971 21.2724 26.1548 21.2928 26.306 21.252C26.4573 21.2123 26.5838 21.1158 26.661 20.9818L27.7283 19.1338C27.842 18.9365 28.0939 18.8689 28.2901 18.9826C28.4875 19.0963 28.555 19.3484 28.4413 19.5457L27.3743 21.3936C27.1878 21.7175 26.883 21.9502 26.5194 22.0479C26.3972 22.0811 26.2739 22.0972 26.1516 22.0972Z" fill="#021A13"/>
<path fill-rule="evenodd" clip-rule="evenodd" d="M18.9163 25.0894C18.8466 25.0894 18.7757 25.0712 18.7102 25.0336C18.5141 24.9199 18.4464 24.6679 18.5601 24.4716L21.5985 19.2078C21.7122 19.0115 21.9642 18.9429 22.1616 19.0576C22.3579 19.1713 22.4254 19.4234 22.3117 19.6196L19.2735 24.8835C19.1972 25.0153 19.0588 25.0894 18.9163 25.0894ZM21.7626 26.7485C21.6929 26.7485 21.6221 26.7303 21.5567 26.6928C21.3606 26.5791 21.2928 26.3271 21.4065 26.1308L24.4526 20.8551C24.5662 20.6589 24.8182 20.5914 25.0144 20.705C25.212 20.8187 25.2793 21.0707 25.1657 21.267L22.1198 26.5426C22.0438 26.6745 21.9052 26.7486 21.7626 26.7485Z" fill="#021A13"/>
<path fill-rule="evenodd" clip-rule="evenodd" d="M37.484 14.0199C37.1711 14.0199 36.8652 14.1818 36.6979 14.4725C36.5767 14.6827 36.5445 14.9261 36.6067 15.1599C36.6701 15.3937 36.8201 15.5889 37.0293 15.7101C37.2386 15.8314 37.483 15.8635 37.7167 15.8002C37.9507 15.738 38.1457 15.5879 38.2669 15.3787C38.5168 14.9454 38.3678 14.391 37.9355 14.1411C37.7929 14.0585 37.6374 14.0199 37.484 14.0199ZM37.4799 16.6561C37.1795 16.6561 36.8834 16.5778 36.6174 16.4233C36.2174 16.1928 35.931 15.8195 35.812 15.3734C35.692 14.9272 35.753 14.4606 35.9846 14.0606C36.2154 13.6606 36.5885 13.3742 37.0346 13.2552C37.4809 13.135 37.9473 13.1962 38.3474 13.4278C39.1732 13.9041 39.4574 14.9647 38.9801 15.7906C38.7497 16.1906 38.3763 16.477 37.9302 16.596C37.7811 16.6368 37.6299 16.6561 37.4799 16.6561Z" fill="#021A13"/>
<path fill-rule="evenodd" clip-rule="evenodd" d="M0.823652 35.4252H2.75226C3.81502 35.4252 4.67933 34.5608 4.67933 33.498L4.67939 24.667C4.67939 23.6041 3.8149 22.7397 2.75205 22.7397H0.823652V35.4252ZM2.75226 36.2489H0.411991C0.184419 36.2489 0 36.0645 0 35.8371L9.02736e-05 22.3279C9.02736e-05 22.1005 0.184419 21.916 0.411811 21.916L2.75226 21.916C4.26866 21.916 5.50301 23.1505 5.50301 24.667V33.4979C5.50301 35.0145 4.26854 36.2489 2.75226 36.2489Z" fill="#021A13"/>
<path fill-rule="evenodd" clip-rule="evenodd" d="M6.7304 33.7776H5.0907C4.86337 33.7776 4.67871 33.5931 4.67871 33.3657C4.67877 33.1384 4.86316 32.9539 5.09055 32.9539L6.7304 32.9539C7.40732 32.9539 7.95841 32.4026 7.95841 31.7259L7.95847 26.4384C7.95847 25.7617 7.40717 25.2105 6.73037 25.2105L5.0907 25.2105C4.86337 25.2105 4.67871 25.026 4.67871 24.7986C4.67877 24.5712 4.86316 24.3868 5.09055 24.3868L6.7304 24.3867C7.86192 24.3867 8.78212 25.307 8.78212 26.4385L8.7823 31.7259C8.7823 32.8573 7.86189 33.7776 6.7304 33.7776Z" fill="#021A13"/>
<path fill-rule="evenodd" clip-rule="evenodd" d="M14.363 27.5163H8.37195C8.14465 27.5163 7.95996 27.3319 7.95996 27.1045C7.96002 26.8771 8.14447 26.6927 8.37183 26.6927L14.363 26.6926C14.5904 26.6926 14.7747 26.8771 14.7747 27.1045C14.7747 27.3319 14.5902 27.5164 14.363 27.5163ZM14.4478 31.4696H8.37195C8.14465 31.4696 7.95996 31.2851 7.95996 31.0577C7.96002 30.8304 8.14447 30.6459 8.37183 30.6459L14.4478 30.6459C14.6751 30.6459 14.8594 30.8304 14.8594 31.0577C14.8594 31.2851 14.6749 31.4696 14.4478 31.4696Z" fill="#021A13"/>
<path fill-rule="evenodd" clip-rule="evenodd" d="M18.2966 25.0456C16.1164 25.0456 14.3422 26.8184 14.3422 28.9988C14.3424 31.1792 16.1162 32.9532 18.2966 32.9532C20.4759 32.9531 22.2498 31.1793 22.2498 28.9988C22.2498 26.8184 20.4759 25.0456 18.2966 25.0456ZM18.2966 33.7768C15.6614 33.7768 13.5186 31.6329 13.5186 28.9988C13.5186 26.3647 15.6614 24.2219 18.2966 24.2219C20.9308 24.2219 23.0735 26.3648 23.0735 28.9988C23.0737 31.6329 20.9307 33.7768 18.2966 33.7768Z" fill="#021A13"/>
<path fill-rule="evenodd" clip-rule="evenodd" d="M18.2974 27.1869C17.2979 27.1869 16.4848 27.9999 16.4848 28.9995C16.4848 29.9991 17.2978 30.812 18.2974 30.812C19.2959 30.812 20.1088 29.9991 20.1088 28.9995C20.1089 27.9999 19.2958 27.187 18.2974 27.1869ZM18.2974 31.6357C16.8432 31.6357 15.6611 30.4527 15.6611 28.9995C15.6613 27.5462 16.843 26.3633 18.2974 26.3633C19.7508 26.3633 20.9325 27.5462 20.9325 28.9995C20.9325 30.4527 19.7506 31.6357 18.2974 31.6357Z" fill="#021A13"/>
</svg>
