<svg width="33" height="46" viewBox="0 0 33 46" fill="none" xmlns="http://www.w3.org/2000/svg">
<path d="M27.6523 0.503906C27.9099 0.519392 28.1351 0.587956 28.3281 0.668945L28.5107 0.75293C28.6135 0.80395 28.7234 0.863923 28.8369 0.929688L29.1865 1.13867L30.9062 2.17773L30.9424 2.19922C31.0533 2.26619 31.1633 2.3328 31.2676 2.39844L31.5586 2.59277H31.5596C31.7075 2.69924 31.8697 2.83192 32.0156 3.00781L32.1553 3.19922C32.3984 3.58117 32.5183 4.02938 32.498 4.48242C32.487 4.72777 32.4283 4.94445 32.3574 5.13086L32.2832 5.30762C32.2384 5.4068 32.1857 5.51278 32.1279 5.62207L31.9453 5.95801L31.1807 7.34375L31.1074 7.47559L31.1201 7.625L31.6836 14.6797L31.7139 15.0869C31.7311 15.3606 31.74 15.634 31.7402 15.9062V15.9697L31.7559 16.0303C31.8114 16.2452 31.801 16.4636 31.7354 16.6621L31.7148 16.7227L31.7109 16.7861C31.4988 19.9397 30.1448 22.9168 27.8838 25.0889L27.6621 25.2959L27.3643 25.5615L27.3613 25.5635L27.3516 25.5723L27.0713 25.8213C24.8454 27.8324 23.2246 30.4773 22.4043 33.4365L22.251 34.0322L22.165 34.4072L21.6182 36.8281C21.3596 37.9733 21.1416 38.9364 20.9307 39.7432L20.7207 40.499C20.4718 41.3346 20.1943 42.0434 19.7988 42.6445L19.6221 42.8965C18.3426 44.5901 16.363 45.5556 14.2852 45.4971L13.8682 45.4717C13.1609 45.4051 12.4727 45.1642 11.7314 44.8086L11.4102 44.6494C10.9842 44.4319 10.5142 44.1681 9.98828 43.8604L8.23047 42.8076L6.69531 41.8809C5.71973 41.2915 4.89824 40.7941 4.2168 40.3486L3.58203 39.9189C2.88173 39.4249 2.30713 38.9395 1.86719 38.3691L1.68652 38.1191C0.501583 36.3575 0.1885 34.1315 0.818359 32.1104L0.957031 31.709C1.2128 31.0355 1.62231 30.4246 2.15723 29.7871L2.39355 29.5117C2.71335 29.1488 3.08845 28.7555 3.51953 28.3184L4.9834 26.8623L6.71484 25.1553L6.98242 24.8896C9.10001 22.7525 10.5798 20.017 11.2432 17.0137L11.3652 16.4102L11.4307 16.0303L11.4336 16.0146L11.5039 15.6123C12.1967 11.9269 14.4461 8.75775 17.6387 6.99121L17.9502 6.8252L18.3037 6.64844L24.3906 3.64844L24.5312 3.5791L24.6074 3.44141L25.3018 2.18262C25.3689 2.06082 25.4353 1.94016 25.501 1.82617L25.6953 1.50879C25.819 1.3227 25.9809 1.11331 26.2119 0.936523L26.3154 0.863281C26.6614 0.63435 27.0638 0.508593 27.4756 0.5L27.6523 0.503906ZM21.0498 17.3604C19.7057 16.2817 17.8897 16.03 16.3145 16.6816L16.0029 16.8242L13.4502 18.1045L13.251 18.2041L13.1914 18.4189C12.4071 21.2772 10.9601 23.8983 8.96777 26.0459L8.5625 26.4688L8.28516 26.7441L6.58789 28.418C5.73834 29.2558 5.07179 29.9142 4.54492 30.4707L4.0625 30.9961C3.55463 31.5725 3.26905 31.9895 3.10352 32.3535L3.04004 32.5068C2.52525 33.8626 2.65773 35.39 3.38086 36.623L3.5332 36.8662C3.74008 37.1737 4.05815 37.4937 4.61133 37.9053L4.86328 38.0869C5.22163 38.3398 5.6417 38.6125 6.1416 38.9238L7.89648 39.9941L9.32715 40.8574C10.3422 41.4707 11.1385 41.952 11.8008 42.3213L12.4209 42.6533C13.0976 42.9989 13.5556 43.1622 13.9238 43.2227L14.0762 43.2432C15.4249 43.3702 16.7565 42.8256 17.6689 41.7627L17.8457 41.543C18.0678 41.2489 18.2713 40.8377 18.4902 40.1631L18.585 39.8574C18.7136 39.4257 18.8423 38.9262 18.9834 38.3369L19.457 36.2754L19.9932 33.9023L20.082 33.5137V33.5127C20.8907 30.1079 22.6266 27.0216 25.0801 24.626L25.5811 24.1562L25.8711 23.8984L25.8721 23.8975L25.8799 23.8906L26.1611 23.6406V23.6396C27.5712 22.3511 28.5823 20.6811 29.1045 18.8408L29.3633 17.9297L28.4648 18.2305L27.5752 18.5273C25.4831 19.2268 23.1933 18.8843 21.4014 17.624L21.0498 17.3604ZM25.0371 5.82324L19.3008 8.65137L18.9678 8.81738C16.7706 9.94891 15.0716 11.8983 14.1865 14.2627L13.7393 15.457L14.8789 14.8848L15.0068 14.8213C17.3509 13.6458 20.1481 13.8978 22.2412 15.4561L22.4414 15.6113C23.6101 16.549 25.1488 16.87 26.585 16.4893L26.8711 16.4033L29.1426 15.6436L29.5127 15.5205L29.4824 15.1318L29.46 14.8428V14.8418L28.9248 8.14648L28.9043 7.89062L28.6855 7.75781L25.5166 5.84375L25.2822 5.70215L25.0371 5.82324ZM27.2842 3.20898L27.2305 3.30566L27.2295 3.30664L27.0654 3.60547L26.833 4.02637L27.2441 4.27539L29.1094 5.40234L29.5547 5.6709L29.8057 5.21582L29.9746 4.91016L29.9736 4.90918C29.992 4.87612 30.0102 4.84514 30.0254 4.81738L30.2549 4.39844L29.8467 4.15039L29.7578 4.0957H29.7568L28.0762 3.08008H28.0752C28.0411 3.05953 28.0102 3.04098 27.9795 3.02246L27.5352 2.75391L27.2842 3.20898Z" fill="#021A13" stroke="white"/>
</svg>
