<svg width="42" height="44" viewBox="0 0 42 44" fill="none" xmlns="http://www.w3.org/2000/svg">
<path d="M20.9057 1.00006C16.7016 0.996632 12.6046 2.32543 9.20277 4.79566C5.80098 7.2659 3.26942 10.7505 1.97154 14.7492C0.673657 18.748 0.67622 23.0551 1.97886 27.0523C3.2815 31.0495 5.81721 34.5311 9.22194 36.9973L9.86428 43L14.9353 39.8976C17.6727 40.7581 20.5638 41.0165 23.4104 40.6553C26.257 40.2941 28.9919 39.3217 31.4276 37.8049C33.8634 36.288 35.9424 34.2625 37.5223 31.8671C39.1021 29.4718 40.1455 26.7632 40.5808 23.927C41.0161 21.0907 40.8332 18.1939 40.0444 15.435C39.2557 12.6761 37.8799 10.1203 36.0112 7.94275C34.1425 5.7652 31.8251 4.01738 29.2179 2.81904C26.6106 1.62071 23.7751 1.00025 20.9057 1.00006Z" stroke="#021A13" stroke-width="1.5" stroke-linecap="round" stroke-linejoin="round"/>
<path d="M15.9638 12.8197L18.5602 15.4161C18.7264 15.5823 18.8583 15.7797 18.9483 15.997C19.0382 16.2142 19.0845 16.447 19.0844 16.6822C19.0844 16.9173 19.038 17.1501 18.948 17.3673C18.8579 17.5845 18.726 17.7818 18.5596 17.948C18.3933 18.1142 18.2613 18.3115 18.1713 18.5287C18.0812 18.7459 18.0348 18.9787 18.0348 19.2139C18.0347 19.449 18.081 19.6818 18.171 19.8991C18.2609 20.1163 18.3928 20.3137 18.5591 20.48L22.415 24.3359C22.5812 24.5021 22.7785 24.634 22.9957 24.7239C23.2129 24.8139 23.4456 24.8602 23.6807 24.8602C23.9158 24.8602 24.1485 24.8139 24.3657 24.7239C24.5829 24.634 24.7802 24.5021 24.9464 24.3359L24.9475 24.3348C25.1137 24.1686 25.3111 24.0367 25.5282 23.9468C25.7454 23.8568 25.9782 23.8105 26.2132 23.8105C26.4483 23.8105 26.681 23.8568 26.8982 23.9468C27.1154 24.0367 27.3127 24.1686 27.4789 24.3348L30.0837 26.9396C30.2499 27.1058 30.3818 27.3031 30.4717 27.5203C30.5617 27.7374 30.608 27.9702 30.608 28.2053C30.608 28.4403 30.5617 28.6731 30.4717 28.8903C30.3818 29.1074 30.2499 29.3047 30.0837 29.471L29.166 30.3887C28.9256 30.629 28.6225 30.7968 28.2913 30.873C26.0507 31.388 23.7161 31.3252 21.5064 30.6905C19.2968 30.0558 17.2847 28.8699 15.6591 27.2443C14.0335 25.6187 12.8476 23.6066 12.2129 21.397C11.5781 19.1873 11.5153 16.8527 12.0304 14.6121C12.1065 14.2809 12.2743 13.9778 12.5147 13.7374L13.4324 12.8197C13.5986 12.6535 13.7959 12.5216 14.0131 12.4317C14.2302 12.3417 14.463 12.2954 14.6981 12.2954C14.9331 12.2954 15.1659 12.3417 15.3831 12.4317C15.6002 12.5216 15.7976 12.6535 15.9638 12.8197Z" stroke="#021A13" stroke-width="1.5" stroke-linecap="round" stroke-linejoin="round"/>
</svg>
