<svg width="92" height="70" viewBox="0 0 92 70" fill="none" xmlns="http://www.w3.org/2000/svg">
<path d="M90.4667 19.7027L90.4668 19.7025L90.4529 19.6888C65.8928 -4.49656 26.0863 -4.49974 1.53192 19.68C1.40014 19.8002 1.19785 19.7892 1.08479 19.6739C0.973345 19.5598 0.97176 19.3939 1.08003 19.2784C25.9089 -5.09568 66.0891 -5.0928 90.9143 19.2871C91.0246 19.3956 91.0284 19.5639 90.9259 19.6767C90.831 19.7573 90.7426 19.7819 90.6787 19.7819C90.5811 19.7819 90.5071 19.744 90.4667 19.7027ZM76.6696 33.2798L76.6697 33.2796L76.6549 33.265C59.7054 16.6131 32.2704 16.6133 15.3115 33.2648L15.3113 33.2647L15.2971 33.2792C15.1745 33.4046 14.9734 33.4052 14.852 33.2879L14.8451 33.2813C14.7262 33.1685 14.7266 32.9984 14.8342 32.8883C14.8349 32.8875 14.8356 32.8868 14.8363 32.8861L14.8442 32.8783L14.8579 32.8649C14.8581 32.8647 14.8584 32.8644 14.8586 32.8642C32.0636 15.9597 59.9122 15.9597 77.1172 32.8641C77.2315 32.9767 77.2315 33.1533 77.1172 33.2659L77.1171 33.2657L77.1034 33.2798C77.0656 33.3185 76.9929 33.359 76.8816 33.359C76.784 33.359 76.71 33.3211 76.6696 33.2798ZM62.8821 46.8568L62.8823 46.8567L62.8672 46.8418C53.5313 37.6782 38.4348 37.6782 29.099 46.8418L29.0979 46.8429C28.9796 46.9594 28.7711 46.9695 28.6332 46.8397C28.5264 46.7313 28.5176 46.5536 28.6404 46.4278C38.2227 37.0245 53.7307 37.026 63.3111 46.4323C63.4247 46.5449 63.4245 46.7211 63.3104 46.8334L63.2962 46.8475L63.2825 46.8621C63.2472 46.8997 63.1768 46.936 63.0942 46.936C62.9965 46.936 62.9225 46.8982 62.8821 46.8568ZM45.9831 69C40.8113 69 36.6546 64.8765 36.6546 59.8291C36.6546 54.7734 40.8197 50.6582 45.9831 50.6582C51.1458 50.6582 55.3116 54.7823 55.3116 59.8291C55.3116 64.8759 51.1458 69 45.9831 69ZM45.9831 51.2461C41.1941 51.2461 37.2826 55.076 37.2826 59.8291C37.2826 64.5821 41.1941 68.4121 45.9831 68.4121C50.772 68.4121 54.6836 64.5821 54.6836 59.8291C54.6836 55.076 50.772 51.2461 45.9831 51.2461Z" fill="#021A13" stroke="#021A13"/>
</svg>
