<svg width="14" height="14" viewBox="0 0 14 14" fill="none" xmlns="http://www.w3.org/2000/svg">
<path d="M12.5934 2.00483e-08H1.40583C1.22121 1.22673e-08 1.0384 0.0363618 0.867841 0.107011C0.697278 0.177661 0.542301 0.281214 0.411757 0.411757C0.281214 0.542301 0.177661 0.69728 0.107011 0.867843C0.0363617 1.03841 0 1.22121 0 1.40583C0 1.59045 0.0363617 1.77326 0.107011 1.94382C0.177661 2.11438 0.281214 2.26936 0.411757 2.3999C0.542301 2.53045 0.697278 2.634 0.867841 2.70465C1.0384 2.7753 1.22121 2.81166 1.40583 2.81166H9.20383L0.439668 11.5758C1.26857 12.0484 1.95244 12.7388 2.41724 13.5721L11.1876 4.80169V12.5939C11.1876 12.9667 11.3357 13.3243 11.5993 13.5879C11.863 13.8516 12.2206 13.9997 12.5934 13.9997C12.9663 13.9997 13.3238 13.8516 13.5875 13.5879C13.8511 13.3243 13.9992 12.9667 13.9992 12.5939V1.40583C13.9993 1.2212 13.9629 1.03838 13.8923 0.867802C13.8216 0.697225 13.7181 0.542235 13.5875 0.411686C13.457 0.281137 13.302 0.177586 13.1314 0.106947C12.9609 0.0363092 12.778 -3.11608e-05 12.5934 2.00483e-08Z" fill="white"/>
</svg>
