<svg width="40" height="33" viewBox="0 0 40 33" fill="none" xmlns="http://www.w3.org/2000/svg">
<path fill-rule="evenodd" clip-rule="evenodd" d="M30.2725 17.8637L-6.50894e-07 17.8637L-7.80754e-07 14.8929L30.2795 14.8929C28.762 13.8729 27.4339 12.6589 26.2884 11.3633C23.1633 7.82862 21.3203 3.61087 20.5658 0.760389L23.4377 0.000169592C24.0948 2.48257 25.7456 6.26415 28.5141 9.39555C31.2178 12.4536 34.9112 14.8172 39.7638 14.8917C39.841 14.8907 39.9185 14.8902 39.9963 14.8902L39.9963 14.8935C39.9976 14.8935 39.9989 14.8935 40.0002 14.8935L40.0002 17.8644C39.921 17.8644 39.8421 17.8639 39.7635 17.8628C34.9091 17.9362 31.2145 20.3003 28.5102 23.3591C25.7416 26.4905 24.0908 30.272 23.4337 32.7544L20.5618 31.9942C21.3163 29.1437 23.1594 24.926 26.2845 21.3913C27.4292 20.0965 28.7563 18.8833 30.2725 17.8637Z" fill="#F3EEE7"/>
</svg>
