<svg width="40" height="17" viewBox="0 0 40 17" fill="none" xmlns="http://www.w3.org/2000/svg">
<path d="M33.4912 17.0003C31.9535 17.0003 30.3677 16.8009 28.7434 16.4015C27.7882 16.1671 27.1207 15.3205 27.1207 14.3423V10.1582C27.1207 9.79538 26.8791 9.46998 26.5331 9.3665C24.3122 8.7024 22.0749 8.36536 19.8834 8.36536C17.6918 8.36536 15.4545 8.7024 13.2338 9.3665C12.8877 9.46998 12.646 9.79538 12.646 10.1582V14.3423C12.646 15.3201 11.9788 16.1671 11.0233 16.4015C7.71012 17.216 4.55606 17.199 1.64781 16.3524C0.898931 16.1372 0.321895 15.4984 0.180181 14.7254L0.137584 14.4757C-0.595503 9.99736 1.64906 5.57888 5.72322 3.48144C14.7742 -1.1789 24.2214 -1.1602 33.8027 3.5363C37.9913 5.58969 40.3755 10.1574 39.6005 14.6448L39.588 14.7167C39.4448 15.4984 38.8678 16.1372 38.1162 16.3533C36.6353 16.7846 35.0893 17.0003 33.4912 17.0003ZM19.8834 6.66314C22.2403 6.66314 24.6416 7.02386 27.0208 7.73576C28.0818 8.05285 28.823 9.049 28.823 10.1582V14.3423C28.823 14.5343 28.9572 14.7013 29.1492 14.7483C32.1682 15.4909 35.0255 15.4806 37.6431 14.7184C37.7815 14.6785 37.886 14.5613 37.9122 14.4187L37.9232 14.3552C38.5702 10.6078 36.5677 6.7874 33.0534 5.06481C23.982 0.618077 15.0491 0.59522 6.50244 4.99499C3.08656 6.75332 1.20397 10.4533 1.81758 14.201L1.8556 14.4241C1.88074 14.5613 1.98526 14.6785 2.12095 14.7175C4.74099 15.4801 7.59853 15.4905 10.6169 14.7483H10.6175C10.8095 14.7013 10.9438 14.5343 10.9438 14.3423V10.1582C10.9438 9.049 11.685 8.05285 12.7461 7.73576C15.1251 7.02386 17.5264 6.66314 19.8834 6.66314Z" fill="white"/>
</svg>
