<svg width="35" height="40" viewBox="0 0 35 40" fill="none" xmlns="http://www.w3.org/2000/svg">
<path d="M34.5128 28.8L32.0328 27.36C32.5128 26.8 33.1528 26.48 33.7928 26.24C34.1928 26.16 34.5128 25.68 34.3528 25.28C34.1928 24.88 33.7928 24.56 33.3928 24.72C32.2728 25.04 31.3128 25.68 30.5928 26.56L28.1128 25.12C28.9128 24.16 29.9528 23.36 31.2328 23.04C31.6328 22.96 31.9528 22.48 31.7928 22.08C31.7128 21.68 31.2328 21.36 30.8328 21.52C29.0728 22 27.7128 23.04 26.6728 24.32L22.9128 22.16C23.1528 21.52 23.3128 20.8 23.3128 20.08C23.3128 19.36 23.1528 18.64 22.9128 18L26.6728 15.84C27.7128 17.2 29.1528 18.24 30.8328 18.64C31.2328 18.72 31.7128 18.48 31.7928 18.08C31.8728 17.68 31.6328 17.2 31.2328 17.12C29.9528 16.8 28.9128 16.08 28.1128 15.04L30.5928 13.6C31.3128 14.48 32.2728 15.12 33.3928 15.44C33.7928 15.52 34.2728 15.28 34.3528 14.88C34.4328 14.48 34.1928 14 33.7928 13.92C33.0728 13.76 32.5128 13.36 32.0328 12.8L34.5128 11.36C34.9128 11.12 35.0728 10.64 34.8328 10.24C34.5928 9.84 34.1128 9.68 33.7128 9.92L31.2328 11.36C30.9928 10.72 30.9928 10 31.1528 9.28C31.2328 8.88 30.9928 8.4 30.5928 8.32C30.1928 8.24 29.7128 8.48 29.6328 8.88C29.3128 10 29.3928 11.2 29.7928 12.24L27.3128 13.68C26.8328 12.48 26.7528 11.2 27.0728 9.92C27.1528 9.52 26.9128 9.04 26.5128 8.96C26.1128 8.88 25.6328 9.12 25.5528 9.52C25.0728 11.2 25.2328 12.96 25.9528 14.48L22.1928 16.64C21.2328 15.2 19.7928 14.4 18.2728 14.24V10.24C19.9528 10.08 21.5528 9.36 22.7528 8.08C23.0728 7.76 23.0728 7.28 22.7528 6.96C22.4328 6.64 21.9528 6.64 21.6328 6.96C20.6728 7.92 19.4728 8.48 18.2728 8.64V5.76C19.3928 5.6 20.4328 5.04 21.2328 4.24C21.5528 3.92 21.5528 3.44 21.2328 3.12C20.9128 2.8 20.4328 2.8 20.1128 3.12C19.6328 3.6 18.9928 4 18.2728 4.16V0.8C18.2728 0.32 17.8728 0 17.4728 0C17.0728 0 16.6728 0.4 16.6728 0.8V4.08C15.9528 3.92 15.3128 3.6 14.8328 3.04C14.5128 2.72 14.0328 2.72 13.7128 3.04C13.3928 3.36 13.3928 3.84 13.7128 4.16C14.5128 4.96 15.5528 5.52 16.6728 5.68V8.48C15.4728 8.32 14.2728 7.76 13.3128 6.8C12.9928 6.48 12.5128 6.48 12.1928 6.8C11.8728 7.12 11.8728 7.6 12.1928 7.92C13.4728 9.2 15.0728 9.92 16.6728 10.08V14.08C15.2328 14.32 13.8728 15.04 12.9128 16.16L9.39276 14.16C10.1128 12.56 10.1928 10.88 9.79276 9.2C9.71276 8.8 9.23276 8.48 8.83276 8.64C8.43276 8.72 8.11276 9.2 8.27276 9.6C8.59276 10.88 8.51276 12.16 8.03276 13.36L5.55276 11.92C5.95276 10.88 6.03276 9.76 5.71276 8.56C5.63276 8.16 5.15276 7.84 4.75276 8C4.35276 8.08 4.03276 8.56 4.19276 8.96C4.35276 9.68 4.35276 10.4 4.11276 11.04L1.23276 9.6C0.832763 9.36 0.352763 9.52 0.112763 9.92C-0.127237 10.32 0.032763 10.8 0.432763 11.04L3.31276 12.72C2.83276 13.2 2.27276 13.6 1.55276 13.84C1.15276 13.92 0.832763 14.4 0.992763 14.8C1.07276 15.28 1.55276 15.52 1.95276 15.36C3.07276 15.04 4.03276 14.4 4.75276 13.52L7.23276 14.96C6.43276 16 5.39276 16.72 4.11276 17.04C3.71276 17.12 3.39276 17.6 3.55276 18C3.63276 18.4 4.11276 18.72 4.51276 18.56C6.19276 18.08 7.63276 17.12 8.67276 15.76L12.1128 17.76C11.7928 18.4 11.6328 19.2 11.6328 20C11.6328 20.8 11.7928 21.6 12.1128 22.32L8.67276 24.32C7.71276 22.96 6.27276 21.92 4.51276 21.52C4.11276 21.44 3.63276 21.68 3.55276 22.08C3.47276 22.48 3.71276 22.96 4.11276 23.04C5.39276 23.36 6.51276 24.16 7.23276 25.12L4.75276 26.56C4.03276 25.68 3.07276 25.04 1.95276 24.72C1.55276 24.64 1.07276 24.88 0.992763 25.28C0.912763 25.68 1.15276 26.16 1.55276 26.24C2.27276 26.4 2.83276 26.8 3.31276 27.36L0.432763 29.04C0.032763 29.28 -0.127237 29.76 0.112763 30.16C0.352763 30.56 0.832763 30.64 1.23276 30.48L4.11276 28.8C4.35276 29.44 4.35276 30.16 4.19276 30.88C4.11276 31.28 4.35276 31.76 4.75276 31.84C5.15276 31.92 5.63276 31.68 5.71276 31.28C6.03276 30.16 5.95276 29.04 5.55276 27.92L8.03276 26.48C8.51276 27.6 8.59276 28.96 8.27276 30.24C8.19276 30.64 8.43276 31.12 8.83276 31.2C9.23276 31.28 9.71276 31.04 9.79276 30.64C10.2728 28.88 10.1128 27.2 9.39276 25.68L12.9128 23.68C13.8728 24.8 15.2328 25.6 16.6728 25.84V30.24C14.9928 30.4 13.3928 31.2 12.1928 32.4C11.8728 32.72 11.8728 33.2 12.1928 33.52C12.5128 33.84 12.9928 33.84 13.3128 33.52C14.2728 32.56 15.3928 32 16.6728 31.84V34.64C15.5528 34.8 14.5128 35.36 13.7128 36.16C13.3928 36.48 13.3928 36.96 13.7128 37.28C14.0328 37.6 14.5128 37.6 14.8328 37.28C15.3128 36.8 15.9528 36.4 16.6728 36.24V39.2C16.6728 39.68 17.0728 40 17.4728 40C17.8728 40 18.2728 39.6 18.2728 39.2V36.32C18.9928 36.48 19.6328 36.8 20.1128 37.36C20.4328 37.68 20.9128 37.68 21.2328 37.36C21.5528 37.04 21.5528 36.56 21.2328 36.24C20.4328 35.44 19.3928 34.88 18.2728 34.72V31.92C19.5528 32.08 20.7528 32.64 21.6328 33.6C21.9528 33.92 22.4328 33.92 22.7528 33.6C23.0728 33.28 23.0728 32.8 22.7528 32.48C21.5528 31.28 19.9528 30.48 18.2728 30.32V25.92C19.7928 25.68 21.2328 24.88 22.1128 23.6L25.8728 25.76C25.2328 27.28 24.9928 29.04 25.4728 30.72C25.5528 31.2 26.0328 31.44 26.4328 31.28C26.8328 31.2 27.1528 30.72 26.9928 30.32C26.6728 29.04 26.7528 27.76 27.2328 26.56L29.7128 28C29.3128 29.04 29.2328 30.24 29.5528 31.36C29.6328 31.76 29.9528 32 30.3528 32C30.9128 32 31.3128 31.52 31.1528 30.96C30.9928 30.24 30.9928 29.52 31.2328 28.88L33.7128 30.32C34.1128 30.56 34.5928 30.4 34.8328 30C34.9928 29.52 34.9128 29.04 34.5128 28.8ZM17.4728 24.24C16.0328 24.24 14.5928 23.44 13.8728 22.16C13.4728 21.52 13.2328 20.8 13.2328 20C13.2328 19.2 13.4728 18.48 13.8728 17.84C14.6728 16.56 16.0328 15.76 17.4728 15.76C18.9928 15.76 20.4328 16.56 21.1528 17.92C21.4728 18.56 21.7128 19.28 21.7128 20C21.7128 20.72 21.5528 21.44 21.1528 22.08C20.4328 23.44 18.9928 24.24 17.4728 24.24Z" fill="white"/>
</svg>
