<svg width="40" height="40" viewBox="0 0 40 40" fill="none" xmlns="http://www.w3.org/2000/svg">
<path fill-rule="evenodd" clip-rule="evenodd" d="M16.4251 21.6667C15.708 24.0762 13.4759 25.8333 10.8333 25.8333C8.19082 25.8333 5.95869 24.0762 5.24157 21.6667H1.66782C0.74671 21.6667 0 20.9269 0 20C0 19.0795 0.745782 18.3333 1.66782 18.3333H5.24157C5.95869 15.9238 8.19082 14.1667 10.8333 14.1667C13.4759 14.1667 15.708 15.9238 16.4251 18.3333H38.3322C39.2533 18.3333 40 19.0731 40 20C40 20.9205 39.2542 21.6667 38.3322 21.6667H16.4251ZM23.5749 32.5C24.292 30.0904 26.5241 28.3333 29.1667 28.3333C31.8092 28.3333 34.0413 30.0904 34.7584 32.5H38.3322C39.2533 32.5 40 33.2398 40 34.1667C40 35.0871 39.2542 35.8333 38.3322 35.8333H34.7584C34.0413 38.2429 31.8092 40 29.1667 40C26.5241 40 24.292 38.2429 23.5749 35.8333H1.66782C0.74671 35.8333 0 35.0936 0 34.1667C0 33.2462 0.745782 32.5 1.66782 32.5H23.5749ZM23.5749 4.16667C24.292 1.75709 26.5241 0 29.1667 0C31.8092 0 34.0413 1.75709 34.7584 4.16667H38.3322C39.2533 4.16667 40 4.90644 40 5.83333C40 6.75381 39.2542 7.5 38.3322 7.5H34.7584C34.0413 9.90957 31.8092 11.6667 29.1667 11.6667C26.5241 11.6667 24.292 9.90957 23.5749 7.5H1.66782C0.74671 7.5 0 6.76023 0 5.83333C0 4.91286 0.745782 4.16667 1.66782 4.16667H23.5749ZM29.1667 8.33333C30.5474 8.33333 31.6667 7.21405 31.6667 5.83333C31.6667 4.45262 30.5474 3.33333 29.1667 3.33333C27.786 3.33333 26.6667 4.45262 26.6667 5.83333C26.6667 7.21405 27.786 8.33333 29.1667 8.33333ZM29.1667 36.6667C30.5474 36.6667 31.6667 35.5474 31.6667 34.1667C31.6667 32.786 30.5474 31.6667 29.1667 31.6667C27.786 31.6667 26.6667 32.786 26.6667 34.1667C26.6667 35.5474 27.786 36.6667 29.1667 36.6667ZM10.8333 17.5C9.45262 17.5 8.33333 18.6193 8.33333 20C8.33333 21.3807 9.45262 22.5 10.8333 22.5C12.214 22.5 13.3333 21.3807 13.3333 20C13.3333 18.6193 12.214 17.5 10.8333 17.5Z" fill="#023D30"/>
</svg>
