<svg width="37" height="40" viewBox="0 0 37 40" fill="none" xmlns="http://www.w3.org/2000/svg">
<path d="M16.7832 24.2857C16.7832 25.0857 17.3986 25.7143 18.1818 25.7143C18.965 25.7143 19.5804 25.0857 19.5804 24.2857V4.85714L22.7972 8.14286C22.9221 8.28011 23.0737 8.38914 23.2423 8.46295C23.4109 8.53676 23.5928 8.57371 23.7762 8.57143L23.8042 8.6C24.1399 8.6 24.5035 8.45714 24.7832 8.17143C25.3427 7.6 25.3427 6.71429 24.7832 6.14286L19.1888 0.428572C19.1864 0.426123 19.184 0.423685 19.1816 0.421257C19.0341 0.268441 18.8523 0.150275 18.6477 0.0785047C18.4989 0.025389 18.3439 -0.000773422 18.189 1.75555e-05L18.1818 0C17.7072 0 17.2943 0.230799 17.0425 0.590684L11.5804 6.11429C11.021 6.68571 11.021 7.57143 11.5804 8.14286C12.1399 8.71429 13.007 8.71429 13.5664 8.14286L16.7832 4.85714V24.2857Z" fill="#023D30"/>
<path d="M4.1958 40H32.1678C34.4895 40 36.3636 38.0857 36.3636 35.7143V15.7143C36.3636 13.3429 34.4895 11.4286 32.1678 11.4286H26.5734C25.7902 11.4286 25.1748 12.0571 25.1748 12.8571C25.1748 13.6571 25.7902 14.2857 26.5734 14.2857H32.1678C32.951 14.2857 33.5664 14.9143 33.5664 15.7143V35.7143C33.5664 36.5143 32.951 37.1429 32.1678 37.1429H4.1958C3.41259 37.1429 2.7972 36.5143 2.7972 35.7143V15.7143C2.7972 14.9143 3.41259 14.2857 4.1958 14.2857H9.79021C10.5734 14.2857 11.1888 13.6571 11.1888 12.8571C11.1888 12.0571 10.5734 11.4286 9.79021 11.4286H4.1958C1.87413 11.4286 0 13.3429 0 15.7143V35.7143C0 38.0857 1.87413 40 4.1958 40Z" fill="#023D30"/>
</svg>
