<svg width="29" height="28" viewBox="0 0 29 28" fill="none" xmlns="http://www.w3.org/2000/svg">
<path d="M28.0742 27.7657H0.925522C0.680058 27.7657 0.444649 27.6681 0.27108 27.4946C0.0975105 27.321 0 27.0856 0 26.8401V0.925522C0 0.680058 0.0975105 0.444649 0.27108 0.27108C0.444649 0.0975105 0.680058 0 0.925522 0H28.0742C28.3196 0 28.555 0.0975105 28.7286 0.27108C28.9022 0.444649 28.9997 0.680058 28.9997 0.925522V26.8401C28.9997 27.0856 28.9022 27.321 28.7286 27.4946C28.555 27.6681 28.3196 27.7657 28.0742 27.7657ZM1.85104 25.9146H27.1486V1.85104H1.85104V25.9146Z" fill="white"/>
</svg>
