<svg xmlns="http://www.w3.org/2000/svg" version="1.1" xmlns:xlink="http://www.w3.org/1999/xlink" xmlns:svgjs="http://svgjs.dev/svgjs" width="1000" height="1000"><g clip-path="url(#SvgjsClipPath1160)"><rect width="1000" height="1000" fill="#04211a"></rect><g transform="matrix(17.5,0,0,17.5,228.75,150)"><svg xmlns="http://www.w3.org/2000/svg" version="1.1" xmlns:xlink="http://www.w3.org/1999/xlink" xmlns:svgjs="http://svgjs.dev/svgjs" width="31" height="40"><svg width="31" height="40" viewBox="0 0 31 40" fill="none" xmlns="http://www.w3.org/2000/svg">
<path d="M29.7777 14.1914L17.3055 19.8137C16.4943 20.1863 15.6155 20.3556 14.7029 20.3556H7.80777L29.3721 12.6672C28.3919 9.68671 26.4991 7.11262 23.9979 5.24979L24.2683 6.33362C25.8569 7.65453 27.1751 9.34801 28.0539 11.2447L0.675998 20.4911V17.409C0.675998 12.9721 2.70399 9.00931 5.84738 6.36748L6.11778 5.28366C2.39979 7.99323 0 12.3963 0 17.3751V40H30.1157V17.3751C30.1157 16.2913 30.0143 15.2075 29.7777 14.1575V14.1914ZM0.675998 39.3226V33.0567L29.4059 16.3251C29.4059 16.6638 29.4397 17.0364 29.4397 17.3751V19.3395L6.79378 33.7341H14.9395C16.2915 33.7341 17.6435 33.2938 18.7251 32.4809L29.4735 24.4538V39.3226H0.675998Z" fill="#EFE8D8"></path>
<path d="M13.5876 4.5724L15.0747 3.62405L16.5281 4.5724L16.0887 2.84505L17.4407 1.76122L15.6831 1.65961L15.0747 0L14.4326 1.65961L12.675 1.76122L14.027 2.84505L13.5876 4.5724Z" fill="#EFE8D8"></path>
<path d="M6.89517 6.26588L8.38237 5.28366L9.86956 6.26588L9.43016 4.53853L10.7822 3.42083L9.02456 3.31922L8.38237 1.69348L7.77397 3.31922L5.98257 3.42083L7.36837 4.53853L6.89517 6.26588Z" fill="#EFE8D8"></path>
<path d="M20.2466 6.26576L21.7338 5.28354L23.221 6.26576L22.7478 4.53841L24.1336 3.42071L22.376 3.3191L21.7338 1.69336L21.0916 3.3191L19.334 3.42071L20.686 4.53841L20.2466 6.26576Z" fill="#EFE8D8"></path>
</svg></svg></g></g><defs><clipPath id="SvgjsClipPath1160"><rect width="1000" height="1000" x="0" y="0" rx="500" ry="500"></rect></clipPath></defs></svg>