<svg width="92" height="92" viewBox="0 0 92 92" fill="none" xmlns="http://www.w3.org/2000/svg">
<path d="M47.3461 88.4631V88.8796L47.7624 88.8627C70.022 87.9574 87.9588 70.0221 88.8641 47.7624L88.881 47.3461H88.4644H81.9563C81.2133 47.3461 80.6101 46.743 80.6101 46C80.6101 45.2571 81.2133 44.6539 81.9563 44.6539H88.4631H88.8796L88.8627 44.2376C87.9589 21.978 70.022 4.04256 47.7624 3.13729L47.3461 3.12036V3.53696V10.0437C47.3461 10.7867 46.743 11.3899 46 11.3899C45.2571 11.3899 44.6539 10.7867 44.6539 10.0437V3.53696V3.12036L44.2376 3.13729C21.978 4.04256 4.04256 21.978 3.13729 44.2376L3.12036 44.6539H3.53696H10.0437C10.7867 44.6539 11.3899 45.2571 11.3899 46C11.3899 46.743 10.7867 47.3461 10.0437 47.3461H3.53696H3.12036L3.13729 47.7624C4.04256 70.022 21.978 87.9574 44.2376 88.8627L44.6539 88.8796V88.4631V81.9563C44.6539 81.2133 45.2571 80.6101 46 80.6101C46.743 80.6101 47.3461 81.2133 47.3461 81.9563V88.4631ZM0.4 45.9959C0.402769 20.8546 20.8587 0.4 46 0.4C71.144 0.4 91.6 20.856 91.6 46C91.6 71.144 71.144 91.6 46 91.6C20.8587 91.6 0.402769 71.1454 0.4 46.0042V46V45.9959Z" fill="#021A13" stroke="white" stroke-width="0.4"/>
</svg>
