<svg width="34" height="92" viewBox="0 0 34 92" fill="none" xmlns="http://www.w3.org/2000/svg">
<path d="M13.3309 92.0001C12.1701 92.0001 11.0835 91.5409 10.2699 90.7059C9.4399 89.8531 8.99996 88.7215 9.03204 87.52L10.4631 39.7794L10.0652 39.5655C3.95094 36.2812 0 28.8563 0 20.6484C0 9.26318 7.53324 0 16.7935 0C26.0537 0 33.5869 9.26318 33.5869 20.6484C33.5869 28.8563 29.636 36.2812 23.5217 39.5655L23.1238 39.7794L24.5549 87.5186C24.587 88.7201 24.147 89.8531 23.3163 90.7066C22.5035 91.5409 21.4168 92.0001 20.256 92.0001H13.3309ZM16.7935 1.46032C8.33897 1.46032 1.4603 10.0682 1.4603 20.6484C1.4603 28.663 5.49966 35.8983 11.5113 38.6535C11.7787 38.7762 11.9455 39.0457 11.9362 39.3395L10.4909 87.5614C10.4702 88.3643 10.7633 89.1179 11.3159 89.687C11.8535 90.2374 12.5687 90.5398 13.3309 90.5398H20.256C21.0182 90.5398 21.7334 90.2374 22.2696 89.6884C22.8236 89.1179 23.1167 88.3621 23.096 87.5592L21.6507 39.3395C21.6414 39.0457 21.8082 38.7762 22.0763 38.6528C28.0873 35.8983 32.1266 28.663 32.1266 20.6484C32.1266 10.0682 25.2479 1.46032 16.7935 1.46032Z" fill="#021A13"/>
</svg>
