<svg width="92" height="70" viewBox="0 0 92 70" fill="none" xmlns="http://www.w3.org/2000/svg">
<path d="M56.293 24.6938C58.1861 24.811 60.369 24.9242 62.0561 24.9183C63.4334 24.9123 64.4289 25.0732 64.4289 25.0037V24.9898L64.6688 14.9974C61.0526 14.6736 57.7323 14.9557 54.6758 16.0205C51.4774 17.135 48.5529 19.1136 45.8663 22.1609C44.6989 23.5734 43.8093 25.0037 43.1516 26.4022C42.414 27.9656 41.9682 29.4893 41.7463 30.9037C41.5624 32.0837 41.6684 33.0214 41.9323 33.4862C41.9782 33.5677 42.0122 33.6134 42.0302 33.6193C42.0482 33.6253 42.0142 33.6035 42.0402 33.5856C42.358 33.3551 42.7318 32.6678 43.1037 31.3666C43.4055 30.3078 43.7393 29.1754 44.1851 28.2259C44.6749 27.1829 45.3066 26.3724 46.1881 26.1062L46.5279 27.2246C46.0262 27.3776 45.6104 27.9577 45.2506 28.7205C44.8488 29.5767 44.5309 30.6653 44.2391 31.6844C43.7893 33.2598 43.2456 34.1577 42.7318 34.5292C42.376 34.7874 42.0162 34.845 41.6704 34.7358C41.3605 34.6365 41.1027 34.402 40.9068 34.0584C40.529 33.3929 40.357 32.1712 40.5829 30.7249C40.8208 29.2092 41.2986 27.5763 42.0842 25.9056C42.7838 24.4196 43.7293 22.9019 44.9647 21.408L44.9767 21.3941C47.8053 18.1839 50.8957 16.096 54.288 14.914C57.6703 13.736 61.3385 13.4658 65.3305 13.885L65.8722 13.9426L65.6063 25.0176C65.5883 25.8082 64.1051 26.0804 62.0601 26.0883C60.315 26.0943 58.1181 25.9811 56.2231 25.8639L56.293 24.6938ZM71.5234 6.78904C72.8967 5.35276 74.4439 4.41909 76.231 3.71982C78.0721 2.9987 80.153 2.53187 82.5638 2.01536C83.0636 1.77499 83.2555 1.46906 83.5433 1.00818C83.6513 0.831382 83.4953 1.0797 83.6333 0.859193C83.8691 0.485722 84.135 0.247337 84.4209 0.116225C84.6507 0.0109377 84.8866 -0.0188606 85.1185 0.0109377C85.3364 0.0387493 85.5403 0.116225 85.7302 0.233431C86.214 0.535386 86.6377 1.1234 86.9196 1.73327C87.0575 2.03523 87.2095 2.50803 87.3254 3.04837C87.4853 3.79332 87.5873 4.69124 87.5093 5.4799C87.4194 6.39371 87.0855 7.17641 86.3419 7.51611C86.228 7.56776 86.108 7.60749 85.9841 7.63531C85.2944 7.78032 84.9326 7.50022 84.5488 7.20025C84.4209 7.10092 84.2869 6.99564 84.163 6.95392C83.6313 6.76917 82.4379 7.04729 81.1405 7.48631C79.6693 7.98494 78.126 8.67824 77.2005 9.16495C80.9766 11.2449 84.7347 16.2609 87.5133 21.7398C90.8256 28.2716 92.7707 35.5185 91.7092 39.2572C91.4333 40.2286 90.9996 40.8424 90.3899 41.3132C89.8141 41.7582 89.1225 42.0383 88.2569 42.3741L88.2409 42.378L87.2035 42.7515C86.9716 45.0638 85.5003 44.9605 83.7432 44.8354C82.4599 44.744 80.9686 44.6387 80.0311 46.081C79.4534 46.9729 78.9056 48.1629 78.3659 49.3429C77.7722 50.6321 77.1885 51.9075 76.5488 52.8273C76.7367 53.2425 76.8287 53.6497 76.8287 54.0689C76.8307 54.5953 76.6868 55.1158 76.4069 55.668C74.4079 59.5974 60.9107 64.0135 44.9008 66.8761C30.0742 69.5262 13.0388 70.8949 1.02284 69.3534L0.924894 69.3414L0.840936 69.3017C0.661027 69.2143 0.537089 69.1309 0.421148 68.9958C0.3172 68.8746 0.251233 68.7475 0.175271 68.5627C-0.104588 67.8674 -0.024628 67.333 0.241238 66.8821C0.47512 66.4828 0.834939 66.2067 1.19876 65.9425L1.20475 65.9385L1.3087 65.863C1.25273 65.8411 1.19876 65.8153 1.14678 65.7875C0.766974 65.5789 0.497109 65.2452 0.565075 64.7128L0.577069 64.6194L0.61505 64.536C1.08681 63.5328 1.27472 63.1315 1.46462 62.7242C3.16777 59.073 4.73098 55.7197 6.85191 52.0207C6.94386 51.8578 6.71798 51.4248 6.52607 51.0632H6.52408C6.46211 50.944 6.40214 50.8288 6.33417 50.6798C5.32868 48.4569 5.61653 48.3178 6.82992 47.7338C6.93587 47.6821 7.04981 47.6265 7.10378 47.6007C10.0063 46.1227 11.4176 43.8918 13.0308 41.343C13.4566 40.6696 13.8964 39.9743 14.3541 39.3029C16.0773 36.768 19.2017 32.3122 21.7464 29.0721C23.1657 27.2684 24.4351 25.8301 25.2566 25.2639C25.2227 24.6183 25.3186 23.8356 25.6724 23.0847C25.9363 22.5265 26.3381 21.9881 26.9258 21.5352C26.7359 21.0564 26.7219 20.522 26.8658 20.0393C26.9658 19.6996 27.1437 19.3837 27.3916 19.1255C27.6474 18.8613 27.9753 18.6626 28.3671 18.5673C28.8408 18.4521 29.4006 18.4918 30.0262 18.762L29.9863 17.7448V17.7349C29.8843 13.9366 34.0762 13.6128 39.3516 13.2036C39.7873 13.1698 40.2331 13.1361 40.7409 13.0924C45.4625 9.17488 50.436 7.089 55.1456 6.13745C61.5284 4.84619 67.4174 5.64479 71.5234 6.78904ZM76.6608 4.81044C74.9256 5.49182 73.4424 6.40563 72.149 7.83992L71.9012 8.11605L71.5453 8.01275C67.5654 6.85658 61.7223 6.00236 55.3815 7.28369C50.7978 8.20942 45.9522 10.2536 41.3565 14.1095L41.2106 14.2326L41.0247 14.2465C40.541 14.2883 39.9832 14.332 39.4375 14.3737C34.7918 14.7332 31.0997 15.0193 31.1637 17.6992L31.2996 21.0465L30.3021 20.2837C29.5965 19.7453 29.0427 19.6082 28.6489 19.7056C28.485 19.7453 28.3491 19.8287 28.2411 19.938C28.1272 20.0572 28.0452 20.2062 27.9973 20.3691C27.8973 20.7028 27.9433 21.0783 28.1632 21.3465L28.593 21.8749L28.0053 22.2205C27.3736 22.594 26.9758 23.0767 26.7399 23.5793C26.4201 24.2567 26.3861 24.9739 26.466 25.5003L26.548 26.0486L25.9963 26.1599C25.5865 26.2433 24.2791 27.7511 22.6759 29.7933C20.1692 32.9797 17.0568 37.4236 15.3316 39.9584C14.8479 40.6696 14.4321 41.3291 14.0263 41.9688C12.3252 44.6586 10.8339 47.0146 7.63951 48.6416C7.48759 48.7191 7.41163 48.7548 7.34166 48.7886C6.96186 48.9714 6.8719 49.0151 7.40963 50.203C7.43962 50.2686 7.50358 50.3918 7.57155 50.5209V50.5229C7.89539 51.1427 8.28519 51.8856 7.87739 52.5988C5.78645 56.2461 4.22923 59.5835 2.53608 63.2149C2.25223 63.8208 1.96237 64.4406 1.79646 64.7942C1.88441 64.826 1.99036 64.8439 2.07831 64.8538C2.83393 64.8777 3.14578 65.122 3.13578 65.5948C3.12978 66.0219 2.72399 66.306 2.14228 66.7132L1.88641 66.892V66.89C1.62654 67.0788 1.37667 67.2695 1.25673 67.4741C1.16677 67.6251 1.14878 67.8277 1.26872 68.1257C1.28471 68.1634 1.29671 68.1912 1.3047 68.2091C13.1907 69.7089 30.0222 68.3462 44.6929 65.7239C60.375 62.9209 73.5244 58.7372 75.3534 55.1396C75.5513 54.7522 75.6533 54.4026 75.6513 54.0689C75.6513 53.747 75.5513 53.4173 75.3474 53.0617L75.1535 52.722L75.3954 52.4121C76.0371 51.5936 76.6608 50.2348 77.2945 48.8562C77.8542 47.6344 78.4219 46.3968 79.0396 45.4472C80.3569 43.419 82.222 43.5521 83.8272 43.6653C85.0146 43.7507 85.9981 43.8203 86.054 42.3105L86.068 41.9152L87.8291 41.2834V41.2815C88.6048 40.9795 89.2244 40.7312 89.6702 40.3875C90.078 40.0716 90.3739 39.6406 90.5738 38.9413C91.5573 35.4768 89.6582 28.5695 86.4598 22.2662C83.5493 16.5291 79.5833 11.3402 75.7672 9.77283L74.9236 9.42717L75.5873 8.80538C76.0091 8.40807 78.5018 7.14066 80.7627 6.37583C82.2739 5.86529 83.7332 5.56532 84.5508 5.84741C84.8646 5.95667 85.0765 6.11957 85.2784 6.27849C85.4384 6.40365 85.5883 6.51887 85.7382 6.48708C85.7822 6.47914 85.8202 6.46722 85.8521 6.45132C86.142 6.32021 86.2839 5.89112 86.3359 5.36468C86.4019 4.71309 86.3119 3.94033 86.172 3.29073C86.072 2.82985 85.9521 2.44644 85.8481 2.21998C85.6522 1.79486 85.3844 1.40152 85.1065 1.22869C85.0526 1.19691 85.0066 1.17505 84.9706 1.17108C84.9526 1.16909 84.9306 1.17108 84.9086 1.18101C84.8327 1.21677 84.7407 1.31014 84.6368 1.47701C84.4349 1.79883 84.5948 1.54257 84.5448 1.62203C84.131 2.28553 83.8631 2.7186 82.9956 3.10995L82.9396 3.13379L82.8756 3.1477C80.4908 3.66022 78.4359 4.11514 76.6608 4.81044ZM53.4125 24.519C55.5814 24.513 57.5604 24.7891 59.0037 25.2421C60.6448 25.7546 61.6743 26.5472 61.7043 27.4968V27.5345C61.7063 28.4424 60.8048 29.2072 59.3215 29.7257C58.0322 30.1747 56.247 30.4766 54.2481 30.5382C54.0282 30.5442 53.8003 30.5481 53.5624 30.5481C51.3935 30.5541 49.4165 30.278 47.9712 29.827C46.33 29.3125 45.3006 28.5199 45.2726 27.5703L45.2706 27.5326C45.2686 26.6247 46.1701 25.8599 47.6554 25.3434C48.9447 24.8924 50.7298 24.5905 52.7288 24.5309C52.9467 24.5229 53.1766 24.519 53.4125 24.519ZM58.6538 26.3605C57.3105 25.9413 55.4574 25.6831 53.4125 25.689C53.2006 25.689 52.9827 25.693 52.7608 25.699C50.8857 25.7566 49.2266 26.0347 48.0412 26.4479C47.0517 26.7936 46.448 27.179 46.448 27.5326C46.448 27.5365 46.448 27.5306 46.448 27.5385C46.46 27.9299 47.1756 28.349 48.323 28.7066C49.6664 29.1278 51.5194 29.384 53.5624 29.3781C53.7763 29.3781 53.9942 29.3741 54.2161 29.3681C56.0891 29.3105 57.7483 29.0324 58.9337 28.6192C59.9252 28.2735 60.5289 27.8882 60.5269 27.5345C60.5269 27.5306 60.5269 27.5365 60.5269 27.5286C60.5149 27.1372 59.7993 26.7201 58.6538 26.3605ZM62.238 24.9342C66.4099 25.9473 68.9407 27.1015 70.182 28.3451C71.8472 30.0138 71.4314 31.7579 69.6003 33.5001C67.9851 35.0397 65.1805 36.5853 61.7463 38.0672C49.0407 43.558 27.4795 48.3238 26.568 48.4946L26.3501 47.3424C27.2576 47.1736 48.6709 42.4396 61.2765 36.9945C64.5909 35.5622 67.2775 34.0902 68.7847 32.6559C70.0761 31.4262 70.4139 30.2402 69.3465 29.1715C68.253 28.0749 65.9062 27.03 61.9602 26.0724L62.238 24.9342ZM3.16976 60.0265L3.18776 60.0285C9.8624 60.7635 19.2857 61.8005 24.0573 51.7247L24.3571 51.091C30.1282 38.8996 34.6699 29.3046 48.7468 17.8303L49.4964 18.7341C35.6214 30.0436 31.1317 39.5313 25.4246 51.5877L25.1227 52.2234V52.2253C19.9933 63.058 10.0803 61.9674 3.05982 61.1946L3.03983 61.1926L3.16976 60.0265ZM61.7043 27.4968C61.7063 27.5365 61.7043 28.357 61.7003 28.9708C61.6963 29.3602 61.6903 29.686 61.6803 29.7396C61.5084 30.6018 60.4729 31.3229 58.9017 31.7957C57.5024 32.2168 55.6254 32.4771 53.5624 32.483C51.5994 32.489 49.7943 32.2645 48.403 31.8871C46.8738 31.4739 45.7823 30.8461 45.4185 30.0952C45.3165 29.8826 45.3006 28.4623 45.2926 27.91V27.908C45.2926 27.8127 45.2906 27.7491 45.2906 27.7213L46.468 27.6895C46.468 27.7014 46.47 27.7809 46.47 27.8961C46.476 28.3749 46.47 29.5648 46.48 29.5847C46.6899 30.0157 47.5074 30.4289 48.7128 30.7547C50.0182 31.1083 51.7133 31.3189 53.5624 31.313C55.5074 31.309 57.2625 31.0666 58.5599 30.6753C59.7073 30.3296 60.4409 29.9184 60.5209 29.5151C60.5229 29.5052 60.5209 29.2827 60.5229 28.9649C60.5269 28.3649 60.5289 27.5663 60.5269 27.5286L61.7043 27.4968ZM65.2085 24.4475L82.7097 30.3753C84.5548 31.0011 85.6063 32.7016 86.238 34.9483C86.8336 37.068 87.0555 39.6743 87.2315 42.2926L86.054 42.3701C85.8821 39.8114 85.6682 37.2706 85.1025 35.2602C84.5728 33.375 83.7372 31.9626 82.3299 31.4858L64.8287 25.5579L65.2085 24.4475ZM65.3265 13.885C71.4954 14.4631 75.8052 16.9184 79.0316 20.6194C82.226 24.2806 84.3329 29.1456 86.138 34.6047L85.0166 34.9662C83.2555 29.6383 81.2085 24.9044 78.142 21.3862C75.1076 17.9058 71.0456 15.5954 65.2165 15.0511L65.3265 13.885ZM2.34018 64.8916C12.553 66.2682 28.6349 65.0763 43.4035 62.4263C57.6423 59.8716 70.6258 55.974 75.8932 51.7367L76.6368 52.6445C71.2095 57.0109 58.0222 60.992 43.6114 63.5785C28.7349 66.2484 12.5151 67.4463 2.18426 66.0517L2.34018 64.8916ZM7.09579 53.9914C6.93187 54.3013 6.90388 54.498 6.96785 54.6052C7.01383 54.6827 7.11978 54.7443 7.2617 54.792C7.4716 54.8595 7.73946 54.8873 8.03731 54.8794C9.10478 54.8456 10.4381 54.3509 10.9858 53.5345L21.8743 37.2865C22.8958 35.7608 23.0178 34.5649 22.6799 33.7961C22.564 33.5359 22.3941 33.3253 22.1902 33.1744C21.9883 33.0234 21.7504 32.928 21.4985 32.8943C20.8908 32.8108 20.1932 33.085 19.6695 33.7922L18.7179 33.0989C19.5255 32.0102 20.651 31.597 21.6565 31.7341C22.1062 31.7937 22.532 31.9665 22.8958 32.2387C23.2597 32.5089 23.5595 32.8764 23.7594 33.3273C24.2432 34.4219 24.1352 36.0251 22.8559 37.9341L11.9693 54.1821C11.2057 55.3184 9.4526 56.0057 8.0753 56.0494C7.64351 56.0634 7.23772 56.0157 6.89389 55.9024C6.4841 55.7674 6.15626 55.5389 5.95636 55.2111C5.6825 54.7562 5.67051 54.1682 6.05231 53.4451L7.09579 53.9914ZM5.99234 48.5979C7.63951 47.1438 8.92487 47.0166 10.0963 47.8867C11.1178 48.6456 11.9573 50.2229 12.8709 52.3565L11.7874 52.8153C10.9478 50.8606 10.2062 49.4342 9.39063 48.8264C8.72297 48.3317 7.91138 48.4728 6.77595 49.476L5.99234 48.5979ZM41.0187 13.0784C42.6819 13.2036 43.3256 14.0519 43.2276 15.3232C43.1117 16.843 41.6704 19.048 39.6454 21.1677C37.6684 23.2396 35.1157 25.2679 32.7149 26.4996C29.5845 28.1047 26.6719 28.3848 25.3586 25.8539L26.4061 25.3176C27.3276 27.0915 29.6344 26.7598 32.1752 25.4566C34.458 24.2865 36.8968 22.3477 38.7918 20.3611C40.6429 18.4223 41.9562 16.4794 42.0502 15.2358C42.0942 14.6836 41.7663 14.3101 40.9308 14.2465L41.0187 13.0784ZM30.8598 19.2685C32.0912 20.1088 32.9228 20.7704 33.5285 21.6007C34.1422 22.4391 34.498 23.4105 34.7719 24.8527L33.6124 25.0673C33.3726 23.8078 33.0747 22.9754 32.573 22.2881C32.0632 21.5908 31.3176 21.0008 30.1962 20.236L30.8598 19.2685ZM42.7358 15.2497C41.0747 15.6629 39.6954 15.953 38.554 16.1933C34.8638 16.9721 33.9323 17.1687 33.8883 19.5447L33.8383 22.2483L32.6609 22.2305L32.7109 19.5248C32.7729 16.2152 33.8863 15.9808 38.3101 15.0471C39.4375 14.8087 40.8008 14.5207 42.448 14.1114L42.7358 15.2497ZM27.4076 21.2114C28.1912 20.7545 29.3726 21.0008 30.6359 21.7855C31.7454 22.4768 32.9648 23.5972 34.0282 25.0057L33.0867 25.7069C32.1092 24.4137 31.0078 23.3966 30.0123 22.7768C29.1247 22.2245 28.3831 22 28.0033 22.2205L27.4076 21.2114ZM75.7712 9.77482L70.9856 7.85581L71.4234 6.76917L76.209 8.68818L75.7712 9.77482ZM73.8082 6.16923C73.6123 6.11758 73.4964 5.91496 73.5503 5.72027C73.6043 5.52559 73.8062 5.41236 74.0021 5.46401C74.4179 5.57724 74.8037 5.74809 75.1395 5.94277C75.5313 6.17122 75.8572 6.43543 76.0871 6.67978C76.225 6.82877 76.215 7.05921 76.0651 7.19628C75.9171 7.33335 75.6853 7.32342 75.5473 7.17641C75.3634 6.97974 75.0956 6.7652 74.7677 6.57449C74.4819 6.40762 74.158 6.26459 73.8082 6.16923ZM76.8387 6.50893C76.6988 6.36193 76.7028 6.13149 76.8487 5.99044C76.9966 5.85139 77.2285 5.85536 77.3704 6.00038C77.6663 6.31028 77.9101 6.65395 78.096 6.99365C78.3159 7.39096 78.4599 7.7843 78.5278 8.11009C78.5698 8.30875 78.4419 8.50144 78.242 8.54316C78.0421 8.58488 77.8482 8.45774 77.8062 8.25908C77.7522 7.99686 77.6323 7.67504 77.4504 7.34328C77.2925 7.05722 77.0886 6.76718 76.8387 6.50893ZM76.9346 4.28201C76.7727 4.16083 76.7407 3.9304 76.8627 3.76948C76.9846 3.60857 77.2165 3.57679 77.3784 3.69797C77.7222 3.95423 78.0161 4.25619 78.256 4.5641C78.5338 4.92168 78.7397 5.28721 78.8577 5.59909C78.9316 5.78782 78.8357 5.99839 78.6458 6.07189C78.4539 6.14341 78.242 6.04805 78.17 5.85933C78.0721 5.60704 77.9041 5.30707 77.6723 5.01108C77.4724 4.75481 77.2245 4.50053 76.9346 4.28201ZM79.5713 5.32694C79.4574 5.16007 79.4993 4.9336 79.6653 4.81838C79.8332 4.70316 80.0631 4.74488 80.179 4.91175C80.4229 5.26535 80.6068 5.6428 80.7367 6.00634C80.8886 6.43146 80.9666 6.84267 80.9826 7.17641C80.9906 7.37904 80.8327 7.54988 80.6308 7.55783C80.4269 7.56776 80.255 7.41083 80.247 7.2082C80.235 6.942 80.169 6.60627 80.0411 6.2487C79.9311 5.94078 79.7772 5.62095 79.5713 5.32694ZM80.3129 3.21325C80.171 3.06823 80.175 2.83581 80.3209 2.69476C80.4649 2.5557 80.6987 2.55769 80.8407 2.70271C81.1405 3.00864 81.3864 3.35032 81.5743 3.68804C81.7982 4.08535 81.9441 4.47868 82.0161 4.80249C82.0581 4.99916 81.9321 5.19583 81.7322 5.23754C81.5343 5.28125 81.3364 5.15411 81.2944 4.95744C81.2365 4.69323 81.1165 4.37141 80.9326 4.04363C80.7727 3.75955 80.5648 3.4715 80.3129 3.21325ZM82.9916 4.36148C82.9076 4.17673 82.9916 3.96019 83.1775 3.87676C83.3634 3.79531 83.5813 3.87676 83.6652 4.06151C83.8412 4.44888 83.9531 4.85414 84.0171 5.23754C84.089 5.68253 84.093 6.10169 84.0471 6.43146C84.0211 6.6321 83.8352 6.77314 83.6333 6.74533C83.4314 6.71951 83.2914 6.53476 83.3174 6.33412C83.3534 6.06792 83.3494 5.72425 83.2894 5.35276C83.2375 5.03094 83.1415 4.69124 82.9916 4.36148ZM79.0036 45.5168C80.7287 41.6708 81.0166 39.8611 80.085 39.4479C78.5598 38.7724 74.146 40.6676 67.5853 43.4825C56.9887 48.0317 40.9228 54.927 21.5345 57.1877L21.4006 56.0236C40.6129 53.7828 56.5829 46.9272 67.1196 42.4058C73.9601 39.4697 78.5638 37.4931 80.5648 38.3791C82.228 39.1161 82.142 41.3947 80.079 45.9935L79.0036 45.5168ZM62.5859 5.48189C64.9027 5.66068 67.4014 6.8983 69.3005 8.94245C70.9636 10.7323 72.173 13.142 72.4029 16.0007L71.2255 16.092C71.0176 13.5175 69.9302 11.3482 68.4329 9.73707C66.7378 7.91144 64.5289 6.8089 62.4979 6.64998L62.5859 5.48189Z" fill="#021A13"/>
</svg>
