<svg width="62" height="40" viewBox="0 0 62 40" fill="none" xmlns="http://www.w3.org/2000/svg">
<path fill-rule="evenodd" clip-rule="evenodd" d="M9.62896 1.65862C9.46907 1.65862 9.30683 1.68022 9.147 1.72343C8.67649 1.84864 8.28089 2.1511 8.03901 2.57011L1.90113 13.2007C1.65907 13.6197 1.59613 14.1123 1.7214 14.5853C1.84915 15.0582 2.14907 15.4514 2.57026 15.6933L41.3936 38.108L59.3486 30.0863L10.5319 1.90274C10.2529 1.74068 9.94406 1.65868 9.62896 1.65862ZM41.344 39.8683C41.2016 39.8683 41.0587 39.8294 40.9291 39.756L1.74125 17.1295C0.937468 16.6673 0.362926 15.9157 0.121042 15.0151C-0.120479 14.1123 0.00218844 13.1749 0.464413 12.3714L6.60283 1.74068C7.56408 0.0777008 9.69776 -0.494661 11.3608 0.466394L61.5859 29.4621C61.8561 29.6176 62.0135 29.9115 61.9985 30.2224C61.9815 30.5335 61.7933 30.8099 61.5082 30.9374L41.6832 39.7948C41.5754 39.8445 41.4605 39.8683 41.344 39.8683Z" fill="#021A13"/>
</svg>
