<svg width="66" height="92" viewBox="0 0 66 92" fill="none" xmlns="http://www.w3.org/2000/svg">
<path d="M63.4299 33.4457L63.4699 33.3251C63.6015 32.9278 63.6232 32.4917 63.5121 32.0615L63.4804 31.9389L63.4803 31.8122C63.4799 31.2678 63.4625 30.7216 63.4281 30.1744C63.4156 29.9792 63.3995 29.7769 63.3733 29.4461L63.3663 29.3586L63.3663 29.3579L62.2396 15.2499L62.2157 14.9504L62.3608 14.6873L63.8897 11.9155L63.8899 11.9151C64.141 11.4605 64.3882 11.0115 64.5673 10.6147C64.7678 10.1706 64.9661 9.62011 64.9955 8.96581C65.0363 8.05931 64.7968 7.16253 64.3102 6.39825C63.9588 5.84672 63.5132 5.46957 63.1185 5.18552L63.1181 5.18522C62.7662 4.93164 62.3291 4.66696 61.8852 4.39889L63.4299 33.4457ZM63.4299 33.4457L63.4214 33.5725C62.9834 40.0826 60.1122 46.2159 55.3246 50.5915M63.4299 33.4457L64.4192 33.6396C63.9645 40.3978 60.9834 46.7748 55.9984 51.3303M13.9642 49.78C18.4819 45.2209 21.5485 39.3001 22.7299 32.82L22.7299 32.82C22.7622 32.6428 22.7936 32.4598 22.8618 32.0609L22.8619 32.0601L22.8671 32.0298C22.9318 31.6514 22.9691 31.4334 23.0082 31.2254C24.4383 23.6167 29.1853 17.1086 35.9005 13.65L35.9011 13.6497C36.0835 13.5556 36.2761 13.4607 36.607 13.2977L36.6072 13.2976L48.7815 7.29622L49.0632 7.15733L49.215 6.88229L50.6035 4.36512L50.6035 4.36506C50.8722 3.87799 51.1357 3.40145 51.3904 3.01823L51.3904 3.01816C51.6732 2.59267 52.0558 2.10646 52.6309 1.72604L52.6309 1.72601C53.4216 1.20282 54.3595 0.951027 55.3046 1.00789L55.3046 1.00789C55.9917 1.04919 56.5644 1.27831 57.0215 1.50516C57.4327 1.7093 57.8982 1.98992 58.3736 2.27726L58.3737 2.27733L61.8117 4.35454L61.8125 4.35502L61.8846 4.39849L12.7279 49.5978L9.26463 53.0132L9.26237 53.0155C7.0933 55.1546 5.34469 56.8792 4.03721 58.3629C2.70211 59.8778 1.62569 61.3595 0.978833 63.0626C-0.748368 67.6112 -0.167123 72.7666 2.5432 76.7961C3.55977 78.3075 4.94581 79.4977 6.58703 80.6555C8.19204 81.7881 10.2793 83.0492 12.8647 84.6111L12.874 84.6168L15.9439 86.472C18.5326 88.0361 20.6233 89.2992 22.3662 90.1893C24.1403 91.0953 25.8396 91.7698 27.6423 91.9395C32.4537 92.3925 37.1097 90.2765 40.0417 86.3951M13.9642 49.78L13.2539 49.0761L13.9644 49.7799C13.9643 49.7799 13.9643 49.7799 13.9642 49.78ZM13.9642 49.78C13.8408 49.9046 13.7121 50.0316 13.4302 50.3097L13.4301 50.3098L9.96679 53.7252C7.78726 55.8748 6.06698 57.572 4.78747 59.024L4.78744 59.0241C3.48438 60.5026 2.49828 61.8785 1.9137 63.4176M1.9137 63.4176L0.978914 63.0627L1.91368 63.4177C1.91369 63.4177 1.9137 63.4177 1.9137 63.4176ZM1.9137 63.4176C0.300908 67.6649 0.845017 72.4796 3.37296 76.238L2.54425 76.7954L3.37298 76.238C4.29034 77.6019 5.56249 78.709 7.16346 79.8383L7.16361 79.8384C8.73488 80.9473 10.7899 82.1893 13.3911 83.7609L13.3912 83.7609L16.4611 85.6161M16.4611 85.6161L15.9472 86.4667L16.4612 85.6161L16.4611 85.6161ZM16.4611 85.6161C19.0613 87.1872 21.1172 88.4286 22.821 89.2987C24.5532 90.1833 26.1195 90.7917 27.736 90.9439C32.1914 91.3634 36.5141 89.4058 39.2438 85.7923L40.0417 86.3951M40.0417 86.3951C41.1341 84.9493 41.8182 83.2357 42.3999 81.2829C42.9725 79.3612 43.5245 76.9183 44.2112 73.8773L45.3052 69.0355L45.3381 68.8898C45.4051 68.593 45.4393 68.4419 45.474 68.2957M40.0417 86.3951L39.2439 85.7923C40.2296 84.4876 40.8724 82.9079 41.4415 80.9975L41.4415 80.9974C42.0023 79.1154 42.5462 76.7105 43.2358 73.657L43.2358 73.6569L44.3298 68.8151L44.363 68.6681C44.4295 68.3738 44.465 68.2165 44.5011 68.0646M44.5011 68.0646L45.474 68.2957M44.5011 68.0646C46.0214 61.6651 49.394 55.9324 54.1427 51.642L54.1432 51.6416C54.2723 51.5251 54.4067 51.4064 54.7014 51.1462C54.7022 51.1456 54.703 51.1449 54.7037 51.1442M44.5011 68.0646C44.5011 68.0645 44.5011 68.0645 44.5011 68.0644L45.474 68.2957M45.474 68.2957C46.9487 62.0884 50.2183 56.5353 54.8131 52.384C54.9375 52.2718 55.0676 52.1569 55.3655 51.8939L55.3892 51.8727C55.6673 51.6275 55.837 51.4776 55.9984 51.3303M63.2364 15.1703L64.3632 29.2789L64.3704 29.3701C64.3963 29.6971 64.413 29.9072 64.426 30.1103L63.2364 15.1703ZM63.2364 15.1703L64.7653 12.3985L63.2364 15.1703ZM55.9984 51.3303L55.3246 50.5915M55.9984 51.3303L54.7037 51.1442M55.3246 50.5915C55.1705 50.732 55.0074 50.8761 54.7278 51.1227L54.7229 51.127L54.7037 51.1442M55.3246 50.5915L54.7037 51.1442M58.726 35.8595L58.209 37.6814C57.1648 41.362 55.1433 44.7031 52.3231 47.2803L52.3228 47.2806C52.2021 47.3908 52.0709 47.5066 51.7754 47.7675L51.7632 47.7783L51.7606 47.7806L51.7442 47.7951L51.742 47.7971L51.6518 47.8768C51.4294 48.0733 51.2943 48.1926 51.162 48.3124L51.1611 48.3132C45.7248 53.2241 41.89 59.7621 40.1648 67.0257L40.1646 67.0265C40.1168 67.2271 40.0704 67.4321 39.9865 67.8039L39.9864 67.8044L38.9144 72.5508C38.1985 75.7198 37.6852 77.9868 37.1704 79.714C37.1704 79.7141 37.1703 79.7142 37.1703 79.7142L36.212 79.4286L58.726 35.8595ZM58.726 35.8595L56.9299 36.4601M58.726 35.8595L56.9299 36.4601M39.1918 66.7946C39.1423 67.0023 39.0945 67.2135 39.011 67.584L39.1918 66.7946ZM39.1918 66.7946C40.9627 59.3389 44.9005 52.6211 50.4908 47.5712L39.1918 66.7946ZM42.0992 34.7201C39.2317 32.4192 35.2911 32.0002 32.0058 33.6478L26.8995 36.2085L26.5013 36.4082L26.3834 36.8378C24.7103 42.9355 21.5286 48.4938 17.1242 52.9385C16.9854 53.0785 16.8428 53.2193 16.5923 53.4665L16.5697 53.4888L16.5695 53.4891L13.1764 56.8356C10.9107 59.07 9.29469 60.6654 8.12589 61.9917L8.12585 61.9917C6.96457 63.3097 6.38407 64.2107 6.07934 65.0133C4.98101 67.9057 5.35704 71.1889 7.06732 73.7315L7.89706 73.1734L7.06733 73.7315C7.54015 74.4344 8.3025 75.1701 9.72647 76.1744M42.0992 34.7201L16.3108 79.1315M42.0992 34.7201C45.7738 37.6686 50.6873 38.5473 55.1504 37.0551M42.0992 34.7201L55.1504 37.0551M9.72647 76.1744C9.7264 76.1744 9.72633 76.1743 9.72626 76.1743L10.3028 75.3572L9.72647 76.1744ZM9.72647 76.1744C11.1595 77.1856 13.088 78.3524 15.7936 79.9874L16.3108 79.1315M16.3108 79.1315L15.7937 79.9874L18.654 81.7156L19.1711 80.8597L16.3108 79.1315ZM56.9299 36.4601L55.1504 37.0551M56.9299 36.4601L55.1504 37.0551M55.9595 6.04432L55.0696 5.50811L54.5678 6.41791L54.4607 6.61203L54.4597 6.61381L54.1304 7.21097L53.6661 8.05271L54.4888 8.54984L58.2192 10.8038L59.1094 11.3417L59.6119 10.4309L59.9474 9.82283C59.9476 9.82232 59.9479 9.82182 59.9482 9.82132C59.9854 9.7545 60.0198 9.6916 60.0505 9.63557L60.5101 8.79755L59.6937 8.30053L59.515 8.19231L59.5135 8.1914L56.1522 6.16044L56.1511 6.15977L55.9595 6.04432ZM57.8503 16.2927L57.8095 15.7816L57.3706 15.5164L51.0338 11.6877L50.5654 11.4047L50.0745 11.6467L38.6012 17.3025L38.6011 17.3025C38.2382 17.4815 38.0806 17.5592 37.9349 17.6343C33.5402 19.8975 30.1424 23.797 28.3724 28.5262L27.4787 30.914L29.7575 29.7705L30.0138 29.6419C34.8531 27.2151 40.6571 27.8316 44.8822 31.2219C47.3757 33.2229 50.7115 33.8198 53.7425 32.8066L53.7425 32.8066L58.2853 31.2878L59.0246 31.0406L58.9653 30.2634C58.9553 30.1317 58.9418 29.9605 58.9198 29.6847L58.9198 29.6845L57.8503 16.2927Z" fill="#021A13" stroke="white"/>
</svg>
